<svg id="Groupe_3361" data-name="Groupe 3361" xmlns="http://www.w3.org/2000/svg" xmlns:xlink="http://www.w3.org/1999/xlink" width="32.644" height="44.966" viewBox="0 0 32.644 44.966">
  <defs>
    <clipPath id="clip-path">
      <rect id="Rectangle_2494" data-name="Rectangle 2494" width="32.644" height="44.966" fill="#fff"/>
    </clipPath>
  </defs>
  <g id="Groupe_3360" data-name="Groupe 3360" clip-path="url(#clip-path)">
    <path id="Tracé_4776" data-name="Tracé 4776" d="M16.277,127.763H4.338c-2.6,0-4.337-2.042-4.337-5.114q0-10.962,0-21.924c0-3.017,1.737-5.073,4.282-5.078.807,0,1.615,0,2.422,0a1.613,1.613,0,0,1,0,3.209c-.85.006-1.7,0-2.549,0a1.614,1.614,0,0,0-.01,3.208q11.366.005,22.733.009c.261,0,.348-.069.326-.384-.025-.366,0-.735-.006-1.1-.008-1.062-.562-1.725-1.454-1.731-.836-.005-1.671,0-2.507,0a1.493,1.493,0,0,1-1.478-1.6,1.47,1.47,0,0,1,1.469-1.6,19.694,19.694,0,0,1,3.35.089,4.6,4.6,0,0,1,3.332,4.5c.017.585.012,1.171,0,1.756a.449.449,0,0,0,.247.489,4.812,4.812,0,0,1,2.473,4.562q.015,7.852,0,15.7c0,2.942-1.757,5.009-4.252,5.011q-6.055.005-12.11,0M2.749,105.016a1.445,1.445,0,0,0-.026.178q0,8.88,0,17.759a1.467,1.467,0,0,0,1.394,1.595q12.194.007,24.389,0c.841,0,1.4-.679,1.412-1.677.007-.92-.01-1.84.008-2.759.006-.307-.058-.391-.324-.387-1.218.019-2.436,0-3.654.01a3.706,3.706,0,0,1-1.417-.263,4.935,4.935,0,0,1-2.746-5.127c.307-2.451,1.942-4.2,3.985-4.24,1.274-.023,2.549-.013,3.824,0,.25,0,.342-.05.333-.376-.022-.852-.007-1.705-.008-2.558,0-1.284-.519-1.889-1.618-1.889q-11.259,0-22.519,0a7.847,7.847,0,0,1-3.035-.261m24.944,11.506c.651,0,1.3-.011,1.952.006.224.006.285-.072.281-.334q-.02-1.278,0-2.556c0-.259-.054-.337-.28-.335-1.259.013-2.518,0-3.778.009a1.62,1.62,0,0,0,0,3.206c.608.011,1.217,0,1.825,0" transform="translate(0 -82.797)" fill="#fff"/>
    <path id="Tracé_4777" data-name="Tracé 4777" d="M87.844,10.483v-.476c0-2.793,0-5.587,0-8.38a1.532,1.532,0,0,1,1.2-1.616,1.389,1.389,0,0,1,1.468,1.206,3.105,3.105,0,0,1,.046.646q0,4.064,0,8.129v.558c.626-.731,1.2-1.416,1.785-2.077a1.2,1.2,0,0,1,1.785-.095,1.8,1.8,0,0,1,.323,2.077,2.278,2.278,0,0,1-.3.423q-1.95,2.31-3.906,4.613a1.225,1.225,0,0,1-2.09.01q-1.973-2.319-3.937-4.648a1.808,1.808,0,0,1-.057-2.363,1.222,1.222,0,0,1,1.972.076c.545.633,1.081,1.278,1.622,1.916.006.007.023,0,.08,0" transform="translate(-74.243 -0.001)" fill="#fff"/>
  </g>
</svg>
