<svg xmlns="http://www.w3.org/2000/svg" width="69.288" height="62.047" viewBox="0 0 69.288 62.047">
  <g id="funds" transform="translate(0 0)">
    <path id="Tracé_2365"  data-name="Tracé 2365" d="M52.97,49.179c0-.013,0-.026,0-.039a1.544,1.544,0,0,0-.038-.189v0a1.562,1.562,0,0,0-.059-.173c-.007-.016-.014-.032-.021-.048-.018-.041-.038-.082-.06-.121-.01-.017-.019-.035-.029-.052s-.01-.019-.016-.028c-.023-.037-.049-.071-.074-.106l-.014-.019a1.524,1.524,0,0,0-.126-.143l-.026-.024a1.58,1.58,0,0,0-.12-.1l-.032-.025a1.591,1.591,0,0,0-.173-.113L29.082,34.865l13.3-8.373L64.671,39.163l-9.388,5.912a1.568,1.568,0,1,0,1.67,2.653l11.6-7.307a1.568,1.568,0,0,0-.061-2.689L43.112,23.3a1.568,1.568,0,0,0-1.61.036L25.206,33.6l-.01.006-8.143,5.128-.011.007L.735,49.01A1.568,1.568,0,0,0,.8,51.7L26.18,66.128a1.567,1.567,0,0,0,1.61-.036l11.6-7.307a1.568,1.568,0,0,0-1.67-2.653l-10.81,6.807L4.621,50.268l13.3-8.373L41.694,55.409v17.9a1.567,1.567,0,0,0,2.4,1.326L52.25,69.5a1.567,1.567,0,0,0,.732-1.326V49.362c0-.009,0-.018,0-.027Q52.979,49.257,52.97,49.179Zm-8.141,21.29V54.5a1.567,1.567,0,0,0-.793-1.363L20.928,40l5.144-3.239L48.364,49.431,46.412,50.66a1.568,1.568,0,1,0,1.67,2.653L49.847,52.2V67.308Z" transform="translate(-0.002 -23.098)" fill="#DF9A33"/>
    <path id="Tracé_2366" data-name="Tracé 2366" d="M360.311,155.383l-11.6,7.307a1.568,1.568,0,1,0,1.67,2.653l11.6-7.307a1.568,1.568,0,1,0-1.67-2.653Z" transform="translate(-293.427 -134.442)" fill="#DF9A33"/>
    <path id="Tracé_2367" data-name="Tracé 2367" d="M37.721,234.222l-10.81,6.807L2.342,227.064A1.568,1.568,0,0,0,.793,229.79l25.385,14.429a1.567,1.567,0,0,0,1.61-.036l11.6-7.307a1.568,1.568,0,0,0-1.67-2.653Z" transform="translate(0 -194.917)" fill="#DF9A33"/>
    <path id="Tracé_2368" data-name="Tracé 2368" d="M360.311,195.382l-11.6,7.307a1.568,1.568,0,1,0,1.67,2.653l11.6-7.307a1.568,1.568,0,0,0-1.67-2.653Z" transform="translate(-293.427 -168.172)" fill="#DF9A33"/>
    <path id="Tracé_2369" data-name="Tracé 2369" d="M37.721,274.222l-10.81,6.807L2.342,267.064A1.568,1.568,0,1,0,.793,269.79l25.385,14.429a1.567,1.567,0,0,0,1.61-.036l11.6-7.307a1.568,1.568,0,0,0-1.67-2.653Z" transform="translate(0 -228.647)" fill="#DF9A33"/>
    <path id="Tracé_2370" data-name="Tracé 2370" d="M360.311,235.383l-11.6,7.307a1.568,1.568,0,1,0,1.67,2.653l11.6-7.307a1.568,1.568,0,0,0-1.67-2.653Z" transform="translate(-293.427 -201.902)" fill="#DF9A33"/>
    <path id="Tracé_2371" data-name="Tracé 2371" d="M37.721,314.222l-10.81,6.807L2.342,307.064A1.568,1.568,0,1,0,.793,309.79l25.385,14.429a1.567,1.567,0,0,0,1.61-.036l11.6-7.307a1.568,1.568,0,0,0-1.67-2.653Z" transform="translate(0 -262.377)" fill="#DF9A33"/>
  </g>
</svg>
