<svg id="funds" xmlns="http://www.w3.org/2000/svg" width="37.05" height="38" viewBox="0 0 37.05 38">
  <path id="Tracé_2365" data-name="Tracé 2365" d="M28.326,39.071c0-.008,0-.016,0-.024a1.067,1.067,0,0,0-.02-.116h0a1.055,1.055,0,0,0-.032-.106l-.011-.029q-.015-.038-.032-.074l-.016-.032-.008-.017c-.012-.023-.026-.044-.04-.065l-.007-.012a.907.907,0,0,0-.067-.087l-.014-.015a.891.891,0,0,0-.064-.064l-.017-.015a.849.849,0,0,0-.093-.069L15.552,30.3l7.11-5.128,11.92,7.76-5.02,3.621a1.045,1.045,0,0,0-.263,1.324.778.778,0,0,0,1.156.3l6.205-4.475a1,1,0,0,0,.391-.834.988.988,0,0,0-.424-.813L23.054,23.223a.748.748,0,0,0-.861.022L13.479,29.53l-.005,0L9.12,32.674l-.006,0L.394,38.967A1,1,0,0,0,0,39.8a.989.989,0,0,0,.424.813L14,49.451a.748.748,0,0,0,.861-.022l6.205-4.475a1.045,1.045,0,0,0,.263-1.324.778.778,0,0,0-1.156-.3L14.392,47.5,2.472,39.738l7.11-5.128L22.3,42.886V53.848a.99.99,0,0,0,.433.841.748.748,0,0,0,.852-.028l4.36-3.144a1,1,0,0,0,.392-.812V39.183c0-.006,0-.011,0-.017Q28.33,39.119,28.326,39.071ZM23.972,52.109V42.328a.992.992,0,0,0-.424-.835L11.192,33.449l2.75-1.984,11.92,7.76-1.044.753a1.045,1.045,0,0,0-.263,1.324.818.818,0,0,0,.71.449.758.758,0,0,0,.446-.148l.944-.681v9.252Z" transform="translate(-0.002 -23.098)" fill="#004156"/>
  <path id="Tracé_2366" data-name="Tracé 2366" d="M354.572,155.289l-6.205,4.475a1.045,1.045,0,0,0-.263,1.324.818.818,0,0,0,.71.449.758.758,0,0,0,.446-.148l6.205-4.475a1.045,1.045,0,0,0,.263-1.324A.778.778,0,0,0,354.572,155.289Z" transform="translate(-318.807 -142.464)" fill="#004156"/>
  <path id="Tracé_2367" data-name="Tracé 2367" d="M20.17,231.368l-5.78,4.169L1.252,226.984a.784.784,0,0,0-1.143.36,1.038,1.038,0,0,0,.315,1.309L14,237.491a.748.748,0,0,0,.861-.022l6.205-4.475a1.045,1.045,0,0,0,.263-1.324A.778.778,0,0,0,20.17,231.368Z" transform="translate(0 -207.297)" fill="#004156"/>
  <path id="Tracé_2368" data-name="Tracé 2368" d="M354.572,195.289l-6.205,4.475a1.045,1.045,0,0,0-.263,1.324.818.818,0,0,0,.71.449.758.758,0,0,0,.446-.148l6.205-4.475a1.045,1.045,0,0,0,.263-1.324A.778.778,0,0,0,354.572,195.289Z" transform="translate(-318.807 -178.624)" fill="#004156"/>
  <path id="Tracé_2369" data-name="Tracé 2369" d="M20.17,271.368l-5.78,4.169L1.252,266.985a.784.784,0,0,0-1.143.36,1.038,1.038,0,0,0,.315,1.309L14,277.491a.748.748,0,0,0,.861-.022l6.205-4.475a1.045,1.045,0,0,0,.263-1.324A.778.778,0,0,0,20.17,271.368Z" transform="translate(0 -243.456)" fill="#004156"/>
  <path id="Tracé_2370" data-name="Tracé 2370" d="M354.572,235.29l-6.205,4.475a1.045,1.045,0,0,0-.263,1.324.818.818,0,0,0,.71.449.758.758,0,0,0,.446-.148l6.205-4.475a1.045,1.045,0,0,0,.263-1.324A.778.778,0,0,0,354.572,235.29Z" transform="translate(-318.807 -214.784)" fill="#004156"/>
  <path id="Tracé_2371" data-name="Tracé 2371" d="M20.17,311.368l-5.78,4.169L1.252,306.985a.784.784,0,0,0-1.143.36,1.038,1.038,0,0,0,.315,1.309L14,317.491a.748.748,0,0,0,.861-.022l6.205-4.475a1.045,1.045,0,0,0,.263-1.324A.778.778,0,0,0,20.17,311.368Z" transform="translate(0 -279.616)" fill="#004156"/>
</svg>
