<svg xmlns="http://www.w3.org/2000/svg" viewBox="0 0 73.85 24.94"><defs><style>.cls-1,.cls-3{fill:#fff;}.cls-1{fill-rule:evenodd;}.cls-2{fill:#4fae33;}</style></defs><title>Groupe 631 (2)</title><g id="Calque_2" data-name="Calque 2"><g id="Calque_1-2" data-name="Calque 1"><g id="Groupe_631" data-name="Groupe 631"><g id="Groupe_629" data-name="Groupe 629"><path id="Tracé_1" data-name="Tracé 1" class="cls-1" d="M8.78,21.15c0-.21,0-.43,0-.64s0-.36-.07-.51l-.07-.37c-.07-.41-.16-.86-.23-1.28l-.09-.44-.18-1-.27-1.43L7.78,15c-.08-.42-.17-.94-.26-1.41,0-.15,0-.3-.08-.43s-.06-.31-.09-.47,0-.29-.07-.42c-.1-.51-.22-1.2-.32-1.71l-.3-1.63c0-.23-.1-.55-.14-.79S6.38,7.36,6.31,7c0-.14,0-.27-.08-.39L6,5.13l-.13-.7-.06-.32c0-.23-.09-.48-.14-.72s0-.22,0-.32h0a2.42,2.42,0,0,0-.13-.46h0s0-.08,0-.12l0,0h0c0-.07-.07-.15-.1-.21l0,0a2.12,2.12,0,0,0-.21-.36l0,0a4,4,0,0,0-.26-.32h0a2.64,2.64,0,0,0-.41-.34l-.06-.05L4.25,1,4.06.93l0,0L3.69.77h0l-.13,0c-.1,0-.2,0-.3-.06h0L3,.65H2.7l-.14,0h0a1.36,1.36,0,0,0-.29.06h0L2,.82,1.83.88h0L1.73.93,1.61,1h0l-.15.1h0l0,0a3.11,3.11,0,0,0-.28.23A.76.76,0,0,0,1,1.46c-.06.05-.11.11-.17.17l-.16.2,0,0a.13.13,0,0,0,0,0c-.05.07-.1.14-.14.21l0,0v0a1.34,1.34,0,0,0-.12.24h0c-.06.15-.12.3-.17.45v0l-.07.27c0,.11,0,.22,0,.34H0c0,.12,0,.23,0,.35s0,.21,0,.32H0L1.61,21.4h0a3.87,3.87,0,0,0,.12.68,4.23,4.23,0,0,0,.29.8,3.64,3.64,0,0,0,.47.75,4.25,4.25,0,0,0,.6.6,3.25,3.25,0,0,0,3.12.52,3.69,3.69,0,0,0,1-.55A3.83,3.83,0,0,0,8,23.29a4.38,4.38,0,0,0,.73-2.14"/><path id="Tracé_2" data-name="Tracé 2" class="cls-2" d="M11.87,8.31C12.18,4.72,9.53,1.45,5.63.12A2,2,0,0,0,3.09,1.3,1.85,1.85,0,0,0,3,1.75L2,13.25a2,2,0,0,0,1.87,2.08,1.78,1.78,0,0,0,.46,0C8.39,14.66,11.56,11.89,11.87,8.31Z"/></g><g id="Groupe_630" data-name="Groupe 630"><path id="Tracé_10" data-name="Tracé 10" class="cls-3" d="M33.3,9.38h1.84a.2.2,0,0,1,.2.2v7.25a.2.2,0,0,1-.2.2H33.3a.2.2,0,0,1-.2-.2v-.3a.2.2,0,0,0-.2-.2.2.2,0,0,0-.15.06,3.06,3.06,0,0,1-2.25.94c-2.15,0-3.66-1.7-3.66-4.12s1.51-4.13,3.66-4.13a3,3,0,0,1,2.25.95A.21.21,0,0,0,33,10a.2.2,0,0,0,.06-.14V9.58A.2.2,0,0,1,33.3,9.38Zm-.21,3.83a2.09,2.09,0,1,0,0,.13.53.53,0,0,0,0-.13Z"/><path id="Tracé_11" data-name="Tracé 11" class="cls-3" d="M38.53,9.52v.36a.17.17,0,0,0,.17.17.19.19,0,0,0,.13-.05,2.89,2.89,0,0,1,5,2.22v4.61a.18.18,0,0,1-.17.17h-1.9a.18.18,0,0,1-.17-.17h0V12.61A1.42,1.42,0,0,0,40.19,11a1.6,1.6,0,0,0-1.6,1.61v4.19a.17.17,0,0,1-.17.17H36.53a.18.18,0,0,1-.18-.17h0V9.52a.18.18,0,0,1,.18-.17h1.83a.17.17,0,0,1,.17.17Z"/><path id="Tracé_12" data-name="Tracé 12" class="cls-3" d="M49.16,8.87a3.91,3.91,0,0,1,4.12,3.69,2.67,2.67,0,0,1,0,.4,4.71,4.71,0,0,1,0,.65l0,0H47.3a0,0,0,0,0,0,0h0a2,2,0,0,0,1.94,1.74A1.83,1.83,0,0,0,51,14.26h0l2,.27a.05.05,0,0,1,0,0h0a3.72,3.72,0,0,1-3.33,2.52A4.26,4.26,0,0,1,45,13.27a4.33,4.33,0,0,1,.12-1.52A4,4,0,0,1,49.16,8.87ZM51,12.27a0,0,0,0,0,0,0h0a1.89,1.89,0,0,0-3.75,0s0,0,0,0H51Z"/><path id="Tracé_13" data-name="Tracé 13" class="cls-3" d="M56.59,6.2V16.94a.18.18,0,0,1-.17.17h-1.9a.17.17,0,0,1-.17-.17V6.2A.16.16,0,0,1,54.52,6h1.9a.17.17,0,0,1,.17.17Z"/><path id="Tracé_14" data-name="Tracé 14" class="cls-3" d="M22.18,4.82h-4.6V6.76a.07.07,0,0,0,0,0V17.07a.26.26,0,0,0,.26.26h1.93a.25.25,0,0,0,.25-.26h0V12.41h2.14c2.6,0,4.39-1.55,4.39-3.79S24.75,4.82,22.18,4.82Zm-.48,5.69H20V6.81a.28.28,0,0,0,0-.09h1.7c1.37,0,2.33.78,2.33,1.9s-1,1.89-2.33,1.89Z"/><path id="Tracé_15" data-name="Tracé 15" class="cls-3" d="M58.53,18.46a.11.11,0,0,1,.11-.11h0a3.33,3.33,0,0,0,.77.11c.94,0,1.32-.65,1.65-1.55a.1.1,0,0,0,0-.09L57.57,9.3a.12.12,0,0,1,.06-.15h2.24a.11.11,0,0,1,.1.07l1.94,4.59a.12.12,0,0,0,.14.06.23.23,0,0,0,.07-.07L63.7,9.22a.1.1,0,0,1,.1-.08h2.09a.11.11,0,0,1,.11.11s0,0,0,0l-2.9,7.77c-.71,2-1.53,3.18-3.09,3.18A4.73,4.73,0,0,1,58.6,20a.1.1,0,0,1-.07-.11Z"/><path id="Tracé_16" data-name="Tracé 16" class="cls-3" d="M70.25,17.11c-2,0-3.44-1.12-3.53-2.7a.16.16,0,0,1,.16-.18h1.57a.16.16,0,0,1,.17.15,1.51,1.51,0,0,0,1.66,1.15c.82,0,1.42-.39,1.42-.9s-.86-.82-1.79-.91c-1.7-.21-3.12-.48-3.12-2.35,0-1.49,1.42-2.57,3.28-2.57s3.41,1,3.52,2.46a.17.17,0,0,1-.16.19H71.78a.19.19,0,0,1-.17-.15c-.09-.55-.73-.91-1.55-.91s-1.24.36-1.26.86.68.66,1.54.8c1.56.21,3.51.52,3.51,2.31C73.85,16,72.39,17.11,70.25,17.11Z"/></g></g></g></g></svg>