<svg xmlns="http://www.w3.org/2000/svg" viewBox="0 0 105.25 35.54"><defs><style>.cls-1,.cls-3{fill:#fff;}.cls-1{fill-rule:evenodd;}.cls-2{fill:#4fae33;}</style></defs><title>Groupe 631</title><g id="Calque_2" data-name="Calque 2"><g id="Calque_1-2" data-name="Calque 1"><g id="Groupe_631" data-name="Groupe 631"><g id="Groupe_629" data-name="Groupe 629"><path id="Tracé_1" data-name="Tracé 1" class="cls-1" d="M12.51,30.15c0-.31,0-.61,0-.92s-.06-.51-.09-.72l-.1-.54L12,26.16c0-.22-.08-.44-.12-.64l-.26-1.44-.38-2-.13-.72c-.11-.59-.25-1.34-.37-2l-.12-.62c0-.19-.08-.43-.12-.66s-.08-.42-.11-.6c-.14-.73-.31-1.71-.45-2.44l-.43-2.32-.2-1.12c-.09-.47-.2-1.06-.3-1.6,0-.2-.07-.39-.1-.56-.12-.62-.27-1.45-.39-2.07-.05-.3-.13-.7-.18-1l-.09-.46c-.06-.33-.12-.69-.19-1,0-.16,0-.32-.08-.46H8a5.06,5.06,0,0,0-.17-.67h0a1.77,1.77,0,0,0-.06-.17l0-.07h0a2.09,2.09,0,0,0-.14-.3l0-.06a4.27,4.27,0,0,0-.3-.51l0-.05c-.12-.15-.24-.31-.37-.45h0a3.86,3.86,0,0,0-.58-.49l-.09-.07-.08-.05-.28-.15,0,0a3,3,0,0,0-.46-.19h0L5.07,1,4.64,1h0a2.22,2.22,0,0,0-.37,0H3.85l-.2,0h0A2.71,2.71,0,0,0,3.22,1H3.16a1.61,1.61,0,0,0-.33.12,1.45,1.45,0,0,0-.22.09h0l-.14.06-.16.09,0,0-.22.13,0,0L2,1.63A3,3,0,0,0,1.56,2a.89.89,0,0,0-.14.13l-.23.25A2.83,2.83,0,0,0,1,2.61l0,0a.16.16,0,0,0,0,.07c-.07.1-.14.2-.2.3l0,.07,0,0-.17.34v0a5.33,5.33,0,0,0-.23.63v0c0,.1-.06.23-.1.39A3.85,3.85,0,0,0,0,5H0a4.07,4.07,0,0,0,0,.5C0,5.68,0,5.82,0,6V6H0L2.3,30.49h0a5.43,5.43,0,0,0,.17,1,5,5,0,0,0,.41,1.14,5.53,5.53,0,0,0,.66,1.06,5.44,5.44,0,0,0,.87.86,4.6,4.6,0,0,0,4.43.74,4.88,4.88,0,0,0,1.43-.79,5.52,5.52,0,0,0,1.18-1.28,6.34,6.34,0,0,0,1.05-3.06"/><path id="Tracé_2" data-name="Tracé 2" class="cls-2" d="M16.92,11.84C17.36,6.73,13.59,2.06,8,.17A2.82,2.82,0,0,0,4.4,1.86a2.23,2.23,0,0,0-.15.63L2.83,18.88a2.84,2.84,0,0,0,2.67,3,2.81,2.81,0,0,0,.65,0C12,20.9,16.48,17,16.92,11.84Z"/></g><g id="Groupe_630" data-name="Groupe 630"><path id="Tracé_10" data-name="Tracé 10" class="cls-3" d="M47.46,13.37h2.62a.29.29,0,0,1,.29.29V24a.29.29,0,0,1-.29.29H47.46a.29.29,0,0,1-.29-.29v-.43a.29.29,0,0,0-.28-.28.3.3,0,0,0-.21.08,4.37,4.37,0,0,1-3.21,1.35c-3.07,0-5.22-2.43-5.22-5.88S40.4,13,43.47,13a4.37,4.37,0,0,1,3.21,1.34.3.3,0,0,0,.41,0,.32.32,0,0,0,.08-.21v-.43A.29.29,0,0,1,47.46,13.37Zm-.31,5.45a2.83,2.83,0,1,0,0,.19c0-.06,0-.13,0-.19Z"/><path id="Tracé_11" data-name="Tracé 11" class="cls-3" d="M54.92,13.57v.51a.25.25,0,0,0,.24.25.23.23,0,0,0,.18-.08,4.12,4.12,0,0,1,3-1.35c2.44,0,4.1,1.9,4.1,4.51V24a.24.24,0,0,1-.24.24h-2.7A.25.25,0,0,1,59.3,24h0V18a2,2,0,0,0-2-2.26A2.29,2.29,0,0,0,55,18v6a.25.25,0,0,1-.24.25h-2.7a.25.25,0,0,1-.25-.25h0V13.57a.25.25,0,0,1,.25-.24h2.61a.25.25,0,0,1,.25.24Z"/><path id="Tracé_12" data-name="Tracé 12" class="cls-3" d="M70.06,12.64a5.56,5.56,0,0,1,5.87,5.26c0,.19,0,.38,0,.57s0,.62,0,.93a0,0,0,0,1,0,0l-8.45,0s0,0,0,0h0a2.79,2.79,0,0,0,2.76,2.49,2.64,2.64,0,0,0,2.52-1.61s0,0,0,0l2.8.4s0,0,0,0h0a5.33,5.33,0,0,1-4.75,3.6,6.08,6.08,0,0,1-6.66-5.44,5.83,5.83,0,0,1,.17-2.16A5.67,5.67,0,0,1,70.06,12.64Zm2.59,4.85a0,0,0,0,0,0,0h0a2.69,2.69,0,0,0-5.34,0,0,0,0,0,0,0,0h5.27Z"/><path id="Tracé_13" data-name="Tracé 13" class="cls-3" d="M80.64,8.83V24.14a.24.24,0,0,1-.24.24H77.69a.24.24,0,0,1-.24-.24V8.83a.24.24,0,0,1,.24-.24H80.4a.24.24,0,0,1,.24.24Z"/><path id="Tracé_14" data-name="Tracé 14" class="cls-3" d="M31.6,6.87H25.05V9.63a.17.17,0,0,0,0,.07V24.33a.37.37,0,0,0,.37.37h2.75a.37.37,0,0,0,.36-.37h0V17.69h3c3.71,0,6.26-2.22,6.26-5.41S35.27,6.87,31.6,6.87ZM30.92,15h-2.4V9.7a.5.5,0,0,0,0-.12h2.42c2,0,3.32,1.11,3.32,2.7S32.88,15,30.92,15Z"/><path id="Tracé_15" data-name="Tracé 15" class="cls-3" d="M83.41,26.31a.16.16,0,0,1,.16-.16h0a4.57,4.57,0,0,0,1.1.16c1.34,0,1.88-.93,2.36-2.22a.17.17,0,0,0,0-.12l-5-10.72a.16.16,0,0,1,.08-.21l.07,0h3.12a.15.15,0,0,1,.15.1l2.76,6.54a.16.16,0,0,0,.21.09.14.14,0,0,0,.08-.1l2.26-6.52a.15.15,0,0,1,.15-.1h3a.16.16,0,0,1,.16.16.09.09,0,0,1,0,.05L89.92,24.31c-1,2.81-2.19,4.53-4.41,4.53a6.51,6.51,0,0,1-2-.34.18.18,0,0,1-.1-.15Z"/><path id="Tracé_16" data-name="Tracé 16" class="cls-3" d="M100.12,24.38c-2.82,0-4.9-1.6-5-3.84a.26.26,0,0,1,.24-.27h2.23a.27.27,0,0,1,.25.22,2.15,2.15,0,0,0,2.37,1.64c1.17,0,2-.56,2-1.28,0-.92-1.24-1.17-2.56-1.3-2.42-.3-4.44-.68-4.44-3.34,0-2.13,2-3.66,4.68-3.66s4.85,1.45,5,3.5a.25.25,0,0,1-.23.26H102.3a.27.27,0,0,1-.24-.22c-.14-.77-1-1.3-2.22-1.3-1,0-1.76.52-1.78,1.24s1,.94,2.19,1.13c2.21.3,5,.74,5,3.3C105.25,22.74,103.17,24.38,100.12,24.38Z"/></g></g></g></g></svg>