<svg id="Groupe_3370" data-name="Groupe 3370" xmlns="http://www.w3.org/2000/svg" xmlns:xlink="http://www.w3.org/1999/xlink" width="47.125" height="53" viewBox="0 0 47.125 53">
  <defs>
    <clipPath id="clip-path">
      <rect id="Rectangle_2498" data-name="Rectangle 2498" width="47.125" height="53" fill="#004156"/>
    </clipPath>
  </defs>
  <g id="Groupe_3369" data-name="Groupe 3369" transform="translate(0)" clip-path="url(#clip-path)">
    <path id="Tracé_4778" data-name="Tracé 4778" d="M0,41.613a1.009,1.009,0,0,1,1.008-.571c1.564.018,3.129-.007,4.693.018.368.006.487-.079.49-.548Q6.26,25.19,6.358,9.869c.007-1.145.222-1.4,1.193-1.4q9.042,0,18.084.01c.346,0,.49-.125.621-.5C27.94,3.124,32.072-.092,36.468,0c6.383.137,11.293,6.732,10.59,14.226-.612,6.529-5.3,11.46-10.867,11.393-.406,0-.5.1-.5.578q.023,9.78.008,19.559c0,3.553-1.948,6.378-4.866,7.1A8.262,8.262,0,0,1,28.824,53Q17.55,53,6.277,53C3.191,53,.9,50.9.122,47.364.1,47.255.145,47.1,0,47.048ZM26.312,17.931a.719.719,0,0,0,0-.162,14.7,14.7,0,0,1-.714-7.016c.051-.377-.015-.479-.35-.479q-8.468.019-16.936,0c-.352,0-.422.114-.424.509q-.071,14.862-.172,29.724c0,.465.108.555.482.554q7.8-.023,15.6-.01c1.358,0,1.4.064,1.414,1.689a31.515,31.515,0,0,0,.058,3.962c.376,2.8,2.458,4.69,4.827,4.468,2.289-.215,4.058-2.49,4.064-5.306.015-6.684,0-13.368.012-20.052,0-.344-.093-.444-.368-.525a10.752,10.752,0,0,1-6.369-5.152.643.643,0,0,0-.63-.389c-2.424.015-4.848.008-7.272.008a3.552,3.552,0,0,1-.368,0,.921.921,0,0,1-.011-1.813,3.964,3.964,0,0,1,.414,0h6.744M45.6,12.815C45.592,6.75,41.432,1.837,36.3,1.836c-5.151,0-9.326,4.929-9.324,11.009,0,6.055,4.16,10.962,9.3,10.977S45.6,18.9,45.6,12.815M25.689,51.181a7.477,7.477,0,0,1-1.919-4.007,22.009,22.009,0,0,1-.091-3.741c.006-.518-.133-.607-.535-.607q-10.54.021-21.08.01c-.092,0-.185.007-.276,0-.167-.014-.26.048-.255.269A30.575,30.575,0,0,0,1.6,46.8a4.719,4.719,0,0,0,4.483,4.384q9.6.01,19.193,0Z" transform="translate(0 0)" fill="#004156"/>
    <path id="Tracé_4779" data-name="Tracé 4779" d="M39.894,385.73h-.41q-9.6,0-19.193,0a4.719,4.719,0,0,1-4.483-4.384,30.576,30.576,0,0,1-.071-3.69c0-.222.088-.284.255-.269.092.008.184,0,.276,0q10.54,0,21.08-.01c.4,0,.541.089.535.607a22.008,22.008,0,0,0,.091,3.741,7.477,7.477,0,0,0,1.919,4.007" transform="translate(-14.205 -334.549)" fill="#004156"/>
    <path id="Tracé_4780" data-name="Tracé 4780" d="M197.292,298.868q-2.437,0-4.873,0a.9.9,0,1,1-.011-1.809q4.919-.005,9.839,0a.905.905,0,1,1-.035,1.809q-2.46,0-4.92,0" transform="translate(-173.071 -263.345)" fill="#004156"/>
    <path id="Tracé_4781" data-name="Tracé 4781" d="M197.191,227.652q2.459,0,4.917,0a.893.893,0,1,1,.036,1.785q-4.963.008-9.926,0a.87.87,0,0,1-.828-1.193.784.784,0,0,1,.838-.6c1.654.01,3.309,0,4.963,0" transform="translate(-172.948 -201.813)" fill="#004156"/>
    <path id="Tracé_4782" data-name="Tracé 4782" d="M127.737,144.652a2.468,2.468,0,1,1-2.41-2.82,2.644,2.644,0,0,1,2.41,2.82m-2.427.963a.985.985,0,0,0-.018-1.966.986.986,0,0,0,.018,1.966" transform="translate(-111.043 -125.737)" fill="#004156"/>
    <path id="Tracé_4783" data-name="Tracé 4783" d="M127.733,213.79a2.623,2.623,0,0,1-2.487,2.725,2.688,2.688,0,0,1-2.4-2.846,2.467,2.467,0,1,1,4.884.121m-2.443.9a.947.947,0,0,0,.928-.968.973.973,0,0,0-.91-1,.948.948,0,0,0-.92.977.938.938,0,0,0,.9.99" transform="translate(-111.041 -186.982)" fill="#004156"/>
    <path id="Tracé_4784" data-name="Tracé 4784" d="M127.738,282.857a2.638,2.638,0,0,1-2.433,2.788,2.669,2.669,0,0,1-2.453-2.831,2.463,2.463,0,1,1,4.885.043m-2.423.968a.956.956,0,0,0,.906-.994.978.978,0,0,0-.932-.976.962.962,0,0,0-.9,1.006.934.934,0,0,0,.925.963" transform="translate(-111.045 -248.277)" fill="#004156"/>
    <path id="Tracé_4785" data-name="Tracé 4785" d="M300.046,86.414a2.72,2.72,0,0,1-1.311.307,2.961,2.961,0,0,1-1.249-.263,2.923,2.923,0,0,1-.994-.745,3.535,3.535,0,0,1-.66-1.154,4.721,4.721,0,0,1,0-2.98,3.4,3.4,0,0,1,.672-1.144,2.944,2.944,0,0,1,1.006-.725,3.091,3.091,0,0,1,2.462,0,2.376,2.376,0,0,1,.809.563.294.294,0,0,1,0,.376l-.635.749a.2.2,0,0,1-.306.007,1.2,1.2,0,0,0-.38-.288,1.5,1.5,0,0,0-.66-.156,1.453,1.453,0,0,0-.68.161,1.629,1.629,0,0,0-.532.443,2.111,2.111,0,0,0-.346.667,2.74,2.74,0,0,0-.124.842,2.82,2.82,0,0,0,.124.857,2.087,2.087,0,0,0,.342.667,1.567,1.567,0,0,0,.524.433,1.446,1.446,0,0,0,.668.156,1.361,1.361,0,0,0,.734-.195,1.528,1.528,0,0,0,.366-.315.2.2,0,0,1,.306,0l.65.723a.3.3,0,0,1,0,.377,2.848,2.848,0,0,1-.8.636" transform="translate(-267.182 -70.44)" fill="#004156"/>
    <path id="Tracé_4786" data-name="Tracé 4786" d="M359.536,82.77v.9a.244.244,0,0,0,.221.262h1.816a.244.244,0,0,1,.222.262v.85a.244.244,0,0,1-.222.262h-1.816a.244.244,0,0,0-.221.262v2.154a.244.244,0,0,1-.222.262h-.951a.244.244,0,0,1-.222-.262V81.349a.244.244,0,0,1,.222-.262h3.4a.244.244,0,0,1,.222.262v.9a.244.244,0,0,1-.222.262h-2.006a.244.244,0,0,0-.221.262" transform="translate(-323.72 -71.885)" fill="#004156"/>
    <path id="Tracé_4787" data-name="Tracé 4787" d="M401.134,87.815l-.343-1.023a.225.225,0,0,0-.206-.165H398.63a.226.226,0,0,0-.208.17l-.321,1.014a.226.226,0,0,1-.208.17h-1.047a.26.26,0,0,1-.2-.363l2.263-6.371a.224.224,0,0,1,.2-.16h1.074a.224.224,0,0,1,.2.161l2.24,6.371a.26.26,0,0,1-.2.362H401.34a.225.225,0,0,1-.206-.165M399.412,83.6l-.421,1.344a.259.259,0,0,0,.208.352h.834a.259.259,0,0,0,.208-.351l-.412-1.344a.212.212,0,0,0-.416,0" transform="translate(-358.504 -71.885)" fill="#004156"/>
  </g>
</svg>
