<svg id="Groupe_3372" data-name="Groupe 3372" xmlns="http://www.w3.org/2000/svg" xmlns:xlink="http://www.w3.org/1999/xlink" width="40.966" height="41.879" viewBox="0 0 40.966 41.879">
  <defs>
    <clipPath id="clip-path">
      <rect id="Rectangle_2500" data-name="Rectangle 2500" width="40.966" height="41.879" fill="#fff"/>
    </clipPath>
  </defs>
  <g id="Groupe_3371" data-name="Groupe 3371" clip-path="url(#clip-path)">
    <path id="Tracé_4788" data-name="Tracé 4788" d="M0,30.9a14.35,14.35,0,0,1,1.73-2.191,1.11,1.11,0,0,1,1.736-.092c.185.179.264.136.408-.036C4.593,27.713,5.322,26.86,6.05,26a3.356,3.356,0,0,0,.5-1.115,70.778,70.778,0,0,0,2.007-6.995A6.865,6.865,0,0,1,10.6,14.284q2.433-2.225,4.834-4.5a3.08,3.08,0,0,1,2.686-1.009c1.148.179,2.307.268,3.462.381a.692.692,0,0,1,.7.5.873.873,0,0,1-.267.871c-1.689,1.99-3.355,4.01-5.077,5.96a2.122,2.122,0,0,0-.576,2.007c.1-.107.2-.212.3-.326Q22.1,11.761,27.521,5.342c.44-.523.848-.718,1.446-.366a1.509,1.509,0,0,0,1.51-.031c.582-.3.806-.248,1.25.275q2.42,2.853,4.836,5.71a1.165,1.165,0,0,1,.223,1.438,2.679,2.679,0,0,0,0,1.917,1.179,1.179,0,0,1-.253,1.472Q31.8,21.351,27.06,26.944c-.371.437-.735.5-1,.165s-.2-.724.154-1.148q4.567-5.394,9.139-10.782a.758.758,0,0,0,.2-.835,3.725,3.725,0,0,1,.02-2.131.556.556,0,0,0-.106-.609Q33.286,9.065,31.135,6.5a.355.355,0,0,0-.48-.137,2.419,2.419,0,0,1-1.956,0c-.214-.092-.329-.024-.477.151q-5.849,6.919-11.711,13.822a.793.793,0,0,0-.192.579c.012.582.02,1.166,0,1.747a1.1,1.1,0,0,0,.652,1.069c.367.215.67.033.934-.278q1.061-1.251,2.121-2.505a6.873,6.873,0,0,1,1.232-1.2.458.458,0,0,0,.2-.555c-.5-2.863.96-5.513,3.343-6.116,2.165-.548,4.386,1.038,5.01,3.577.634,2.576-.547,5.326-2.683,6.212a1.759,1.759,0,0,0-.694.517c-1.5,1.787-3.015,3.564-4.521,5.348-.2.241-.384.509-.627.834a3.678,3.678,0,0,1,1.495.287c.145.072.212-.087.294-.182.313-.365.62-.737.935-1.1s.651-.4.913-.086a.8.8,0,0,1-.079,1.081q-.6.726-1.217,1.435a.768.768,0,0,1-1.12.242,1.671,1.671,0,0,0-1.733,0c-.095.054-.207.135-.3.117-.487-.1-.6.416-.851.7-.117.131-.015.214.057.3l1.985,2.366c.112-.164.2-.309.3-.431q8.723-10.3,17.455-20.6c.234-.276.277-.41.014-.718Q34.676,7.4,29.954,1.789c-.225-.267-.335-.25-.55.006C27.707,3.82,26,5.829,24.291,7.845c-.174.206-.35.4-.618.363a.723.723,0,0,1-.437-1.066,2.053,2.053,0,0,1,.266-.35q2.629-3.107,5.26-6.212C29.42-.2,29.945-.193,30.608.59q4.936,5.827,9.87,11.655a1.449,1.449,0,0,1-.014,2.181l-17.9,21.138c-.661.78-1.186.778-1.849,0q-.934-1.1-1.866-2.205c-.1-.115-.167-.22-.32-.071a8.872,8.872,0,0,1-3.193,1.768c-.883.344-1.759.715-2.647,1.04a3.906,3.906,0,0,0-1.529,1.316c-.112.133-.034.2.032.3a1.727,1.727,0,0,1-.131,2.233c-.392.472-.784.945-1.187,1.4a1.177,1.177,0,0,1-1.979-.017Q4.167,36.945.447,32.554c-.183-.215-.267-.5-.447-.712ZM20.423,10.428c-.856-.084-1.629-.11-2.387-.249a1.9,1.9,0,0,0-1.737.592q-2.534,2.378-5.082,4.737a5.034,5.034,0,0,0-1.464,2.574,78.34,78.34,0,0,1-2.215,7.656,4.427,4.427,0,0,1-.853,1.511c-.668.746-1.3,1.54-1.961,2.292-.2.221-.172.334.008.545q2.626,3.077,5.23,6.179c.194.231.3.26.489.005A4.15,4.15,0,0,1,12.225,34.8c1.211-.473,2.414-.972,3.629-1.432a6.248,6.248,0,0,0,3.116-2.586,35.335,35.335,0,0,1,3.823-5.067c.268-.289.269-.459,0-.755a1.955,1.955,0,0,1-.416-2.25,4.856,4.856,0,0,1,2.07-2.2,2.157,2.157,0,0,1,2.318.368.885.885,0,0,0-.49-1.277,2.391,2.391,0,0,0-1.267-.079,6.964,6.964,0,0,0-4.233,2.52c-.708.855-1.418,1.71-2.155,2.531a1.613,1.613,0,0,1-2.14.434,2.414,2.414,0,0,1-1.351-2.243c0-1.606.045-3.214-.017-4.816a2.839,2.839,0,0,1,.769-2.179c1.523-1.715,2.989-3.5,4.541-5.332m-10.1,28.306c-.012-.122-.1-.182-.162-.258-.233-.28-.47-.557-.706-.836q-3.265-3.855-6.526-7.715c-.214-.254-.346-.306-.565-.011-.307.413-.647.793-.987,1.17-.177.2-.225.325-.021.564q3.658,4.292,7.3,8.609c.166.2.278.237.453.017.347-.436.713-.849,1.069-1.274.064-.076.15-.138.148-.267M28.13,20.318a3.844,3.844,0,0,0,.659-2.144c.057-2.142-1.463-3.893-3.278-3.8s-3.155,1.982-2.961,4.147c.026.286.084.344.316.233a6.164,6.164,0,0,1,2.795-.687,2.427,2.427,0,0,1,2.469,2.248m-2.159,1.65a1.14,1.14,0,0,0-1.572.166c-.226.242-.435.506-.651.761-.473.559-.461.763.044,1.28.113.115.176.14.29.005.617-.732,1.241-1.455,1.889-2.213" transform="translate(0 0)" fill="#fff"/>
  </g>
</svg>
