<svg id="Groupe_3441" data-name="Groupe 3441" xmlns="http://www.w3.org/2000/svg" xmlns:xlink="http://www.w3.org/1999/xlink" width="49.087" height="67.617" viewBox="0 0 49.087 67.617">
  <defs>
    <clipPath id="clip-path">
      <rect id="Rectangle_2494" data-name="Rectangle 2494" width="49.087" height="67.617" fill="#004156"/>
    </clipPath>
  </defs>
  <g id="Groupe_3360" data-name="Groupe 3360" clip-path="url(#clip-path)">
    <path id="Tracé_4776" data-name="Tracé 4776" d="M24.477,143.952q-8.977,0-17.954,0c-3.917,0-6.521-3.071-6.522-7.69q0-16.484,0-32.968c0-4.537,2.611-7.629,6.439-7.635,1.214,0,2.428-.006,3.642,0a2.425,2.425,0,0,1,0,4.826c-1.278.008-2.556-.006-3.834,0a2.428,2.428,0,0,0-.014,4.824q17.092.008,34.183.014c.392,0,.523-.1.49-.577-.038-.55-.005-1.106-.01-1.659-.012-1.6-.845-2.593-2.186-2.6-1.257-.008-2.513,0-3.77,0a2.245,2.245,0,0,1-2.222-2.408,2.211,2.211,0,0,1,2.21-2.412,29.615,29.615,0,0,1,5.038.133c2.766.533,4.911,3.446,5.01,6.767.026.879.018,1.76.007,2.64a.675.675,0,0,0,.371.735c2.463,1.349,3.713,3.662,3.719,6.861q.023,11.807,0,23.613c0,4.424-2.642,7.532-6.394,7.536q-9.105.008-18.21,0m-20.343-34.2a2.173,2.173,0,0,0-.04.267q0,13.352,0,26.705a2.205,2.205,0,0,0,2.1,2.4q18.337.01,36.673,0c1.264,0,2.112-1.022,2.124-2.521.011-1.383-.015-2.767.012-4.149.009-.462-.087-.589-.488-.582-1.831.028-3.663.007-5.495.015a5.572,5.572,0,0,1-2.13-.4c-2.746-1.1-4.537-4.452-4.129-7.71.462-3.685,2.92-6.321,5.992-6.376,1.916-.035,3.834-.02,5.75,0,.376,0,.514-.076.5-.566-.034-1.281-.01-2.564-.011-3.847,0-1.931-.78-2.841-2.432-2.841q-16.931,0-33.862-.007a11.8,11.8,0,0,1-4.564-.392m37.508,17.3c.979,0,1.958-.017,2.936.009.337.009.429-.109.422-.5q-.031-1.921,0-3.843c.006-.389-.081-.507-.421-.5-1.893.02-3.787,0-5.68.014a2.436,2.436,0,0,0,0,4.821c.915.017,1.83,0,2.745,0" transform="translate(0 -76.337)" fill="#004156"/>
    <path id="Tracé_4777" data-name="Tracé 4777" d="M89.9,15.762v-.715c0-4.2-.006-8.4,0-12.6A2.3,2.3,0,0,1,91.712.016,2.089,2.089,0,0,1,93.92,1.829a4.669,4.669,0,0,1,.07.971q.006,6.112,0,12.224v.84c.941-1.1,1.8-2.129,2.684-3.124A1.8,1.8,0,0,1,99.36,12.6a2.712,2.712,0,0,1,.486,3.123,3.425,3.425,0,0,1-.446.637q-2.933,3.474-5.874,6.937a1.842,1.842,0,0,1-3.143.015q-2.966-3.487-5.92-6.99a2.719,2.719,0,0,1-.086-3.554,1.838,1.838,0,0,1,2.965.114c.82.952,1.626,1.921,2.44,2.881.009.011.035,0,.12,0" transform="translate(-69.45 0)" fill="#004156"/>
  </g>
</svg>
