<svg xmlns="http://www.w3.org/2000/svg" width="163.138" height="188.516" viewBox="0 0 163.138 188.516">
  <g id="Groupe_2373" data-name="Groupe 2373" transform="translate(-15295 -8567.873)">
    <path id="Tracé_3586" data-name="Tracé 3586" d="M46.153,102.674q-6.915,11.051-13.832,22.1c-1.43,2.285-2.913,4.537-4.294,6.851-7.195,12.056,1.23,27.344,15.237,27.39q44.818.144,89.638,0a17.965,17.965,0,0,0,15.218-27.374c-4.886-8.069-10.039-15.975-15.07-23.954-.356-.565-.7-1.14-1.035-1.694.306-.575.79-.331,1.161-.332,5.755-.018,11.511-.038,17.266-.006a12.548,12.548,0,0,1,12.914,12.894q.054,37.363,0,74.724c-.011,7.554-5.451,12.892-13.066,12.9q-34.533.03-69.066-.022a9.841,9.841,0,0,0-6.418,2.185q-15.768,12.348-31.623,24.586c-.614.476-1.245.929-2.134,1.591v-7.734c0-4.6.015-9.2,0-13.8-.017-4.177-2.6-6.761-6.764-6.791-2.816-.02-5.633.011-8.45-.007-7.669-.051-13.017-5.411-13.025-13.135q-.032-30.461-.007-60.92c0-4.478-.023-8.957.006-13.436.049-7.572,5.441-12.984,12.972-13.032,3.8-.024,7.592,0,11.388-.008,2.432-.007,3.161-.569,3.953-2.976l5.035.005m45.055,65.859q-18.09,0-36.18,0a12.956,12.956,0,0,0-1.834.046,2.825,2.825,0,0,0-2.64,2.618,2.944,2.944,0,0,0,1.958,3.355,6.3,6.3,0,0,0,2.537.257q36.181.007,72.361,0a6.238,6.238,0,0,0,2.536-.264,2.941,2.941,0,0,0,1.934-3.369,2.821,2.821,0,0,0-2.656-2.6,13.659,13.659,0,0,0-1.834-.043q-18.09,0-36.18,0M62.9,190.519q14.872,0,29.744,0a14.481,14.481,0,0,0,2.014-.083,3.119,3.119,0,0,0,2.84-3.08,3.175,3.175,0,0,0-2.823-3.119,10.572,10.572,0,0,0-1.647-.067q-30.019,0-60.039,0c-3.013,0-4.448,1.03-4.45,3.171s1.433,3.163,4.434,3.181c.367,0,.734,0,1.1,0H62.9m48.671-.021v-.012c1.592,0,3.189.084,4.774-.022a2.984,2.984,0,0,0,3.039-3.04,3.016,3.016,0,0,0-3.067-3.213c-3.12-.1-6.247-.1-9.367-.006a3.138,3.138,0,1,0,.03,6.275c1.525.092,3.06.018,4.591.018m-75.2-21.954c-1.592,0-3.186-.049-4.776.013a3.094,3.094,0,0,0-.344,6.165c3.421.139,6.857.139,10.276-.029a2.871,2.871,0,0,0,2.592-3.242,2.947,2.947,0,0,0-2.972-2.889c-1.589-.069-3.183-.015-4.775-.018m106.62-.011c-.428,0-.856-.011-1.284,0-2.111.064-3.36,1.184-3.395,3.033a3.086,3.086,0,0,0,3.242,3.23,21,21,0,0,0,3.115-.021,3.121,3.121,0,0,0,2.952-3.335,3.03,3.03,0,0,0-3.164-2.9c-.488-.026-.978,0-1.467-.009" transform="translate(15288.492 8515.626)" fill="#004156" opacity="0.064"/>
    <path id="Tracé_3587" data-name="Tracé 3587" d="M107.611,107.006q-22.228,0-44.457-.01a11.545,11.545,0,0,1-11.4-8.669,12.054,12.054,0,0,1,1.71-10.012c3.764-5.885,7.473-11.8,11.2-17.711q16.394-25.956,32.8-51.9c4.232-6.659,12.166-7.883,18.053-2.961a13.48,13.48,0,0,1,2.628,3.289q21.9,34.654,43.783,69.315c2.563,4.057,3.013,8.264.676,12.519-2.377,4.327-6.207,6.171-11.094,6.157-14.635-.041-29.27-.014-43.906-.015M95.943,44.845c.558,6.518,1.228,13.831,1.8,21.151a9.957,9.957,0,0,0,19.908-.125c.359-5.126.975-10.234,1.3-15.361.193-3.044.944-6.1.339-9.151A11.652,11.652,0,0,0,106.9,31.633c-6.626.514-11.059,5.689-10.955,13.212m11.772,37.09a9.4,9.4,0,1,0,9.442,9.306,9.49,9.49,0,0,0-9.442-9.306" transform="translate(15268.884 8561.392)" fill="#4daf27"/>
    <g id="Groupe_2372" data-name="Groupe 2372" transform="translate(15295 8567.873)">
      <path id="Tracé_3585" data-name="Tracé 3585" d="M39.644,50.429q6.422-10.058,12.841-20.118c4.4-6.928,8.823-13.836,13.113-20.829A19.03,19.03,0,0,1,77.553.438c.285-.071.622-.053.716-.437h6.247c.073.288.3.314.548.365A18.057,18.057,0,0,1,97.147,8.879c7.728,12.278,15.507,24.523,23.216,36.814a2.653,2.653,0,0,0,2.6,1.467c6.855-.067,13.712-.043,20.568-.029,11.425.024,19.574,8.123,19.586,19.548q.039,36.986,0,73.972c-.01,11.444-8.111,19.543-19.56,19.555q-34.25.034-68.5-.018a4.806,4.806,0,0,0-3.168,1.069q-16.183,12.551-32.4,25.052c-1.1.852-2.322,1.469-3.48,2.208H32.7c-3.648-1.726-4.621-4.7-4.481-8.563.218-6,.016-12.021.09-18.031.017-1.345-.28-1.755-1.694-1.753-3.665,0-7.356.4-10.994-.265A18.733,18.733,0,0,1,.049,141.618c-.094-4.844-.023-9.691-.023-14.537q0-30.271.008-60.543C.045,57.264,5.78,49.814,14.483,47.664a19.193,19.193,0,0,1,4.726-.541c3.8.02,7.591,0,11.387.008,2.579.006,3.471.747,4.014,3.292-.792,2.406-1.521,2.969-3.953,2.976-3.8.011-7.592-.016-11.388.008C11.737,53.455,6.344,58.868,6.3,66.439,6.267,70.918,6.29,75.4,6.29,79.875q0,30.461.008,60.92c.008,7.725,5.356,13.085,13.025,13.135,2.817.019,5.633-.012,8.45.008,4.167.029,6.746,2.614,6.764,6.791.019,4.6,0,9.2,0,13.8v7.734c.889-.662,1.52-1.115,2.134-1.591Q52.5,168.4,68.3,156.09a9.843,9.843,0,0,1,6.418-2.185q34.533.074,69.066.022c7.614-.007,13.055-5.345,13.066-12.9q.052-37.362,0-74.724a12.548,12.548,0,0,0-12.913-12.894c-5.755-.032-11.511-.012-17.267.006-.371,0-.855-.243-1.161.332.338.554.679,1.13,1.035,1.694,5.031,7.98,10.184,15.886,15.07,23.954a17.965,17.965,0,0,1-15.218,27.374q-44.819.145-89.639,0c-14.007-.045-22.432-15.333-15.236-27.39,1.381-2.314,2.864-4.566,4.294-6.851q6.918-11.049,13.831-22.1m41.851,50.1c14.635,0,29.27-.026,43.906.015,4.887.014,8.718-1.83,11.094-6.158,2.337-4.255,1.887-8.462-.676-12.519q-21.9-34.655-43.783-69.315A13.478,13.478,0,0,0,89.408,9.26c-5.887-4.922-13.821-3.7-18.053,2.96q-16.467,25.91-32.8,51.9c-3.731,5.906-7.439,11.826-11.2,17.711a12.056,12.056,0,0,0-1.711,10.012,11.545,11.545,0,0,0,11.4,8.669q22.229.041,44.457.011" transform="translate(0 -0.001)" fill="#004156"/>
      <path id="Tracé_3588" data-name="Tracé 3588" d="M130.3,236.772q18.09,0,36.18,0a13.668,13.668,0,0,1,1.834.043,2.821,2.821,0,0,1,2.656,2.6,2.943,2.943,0,0,1-1.935,3.369,6.245,6.245,0,0,1-2.536.263q-36.18.006-72.36,0a6.309,6.309,0,0,1-2.537-.257,2.943,2.943,0,0,1-1.958-3.355,2.824,2.824,0,0,1,2.639-2.618,12.956,12.956,0,0,1,1.834-.046q18.09,0,36.18,0" transform="translate(-45.604 -120.486)" fill="#004156"/>
      <path id="Tracé_3589" data-name="Tracé 3589" d="M79.218,274.965H50.392c-.367,0-.735,0-1.1,0-3-.018-4.435-1.048-4.434-3.181s1.437-3.17,4.45-3.17q30.019,0,60.039,0a10.519,10.519,0,0,1,1.648.067,3.175,3.175,0,0,1,2.823,3.119,3.119,3.119,0,0,1-2.84,3.08,14.406,14.406,0,0,1-2.014.082q-14.872.007-29.744,0" transform="translate(-22.827 -136.693)" fill="#004156"/>
      <path id="Tracé_3590" data-name="Tracé 3590" d="M205.895,274.911c-1.531,0-3.066.074-4.591-.018a3.138,3.138,0,1,1-.03-6.275c3.12-.094,6.247-.1,9.367.005a3.016,3.016,0,0,1,3.067,3.214,2.983,2.983,0,0,1-3.039,3.04c-1.584.107-3.182.022-4.774.022v.013" transform="translate(-100.832 -136.659)" fill="#004156"/>
      <path id="Tracé_3591" data-name="Tracé 3591" d="M52.692,236.785c1.592,0,3.186-.053,4.775.016a2.948,2.948,0,0,1,2.972,2.889,2.871,2.871,0,0,1-2.592,3.242c-3.419.168-6.855.168-10.276.029a3.094,3.094,0,0,1,.345-6.165c1.59-.061,3.183-.013,4.776-.011" transform="translate(-22.825 -120.486)" fill="#004156"/>
      <path id="Tracé_3592" data-name="Tracé 3592" d="M273.063,236.779c.489,0,.979-.019,1.467.006a3.031,3.031,0,0,1,3.164,2.9,3.121,3.121,0,0,1-2.952,3.335,20.929,20.929,0,0,1-3.115.021,3.086,3.086,0,0,1-3.242-3.23c.035-1.85,1.284-2.969,3.395-3.033.428-.013.856,0,1.284,0" transform="translate(-136.576 -120.49)" fill="#004156"/>
    </g>
    <path id="Tracé_3593" data-name="Tracé 3593" d="M142.177,64.39c-.1-7.524,4.329-12.7,10.955-13.212A11.651,11.651,0,0,1,165.523,60.9c.606,3.052-.145,6.107-.339,9.151-.326,5.127-.94,10.235-1.3,15.361a9.957,9.957,0,0,1-19.908.125c-.57-7.321-1.24-14.633-1.8-21.151m17.252-.765c.114-3.543-2.274-6.223-5.527-6.2a5.562,5.562,0,0,0-5.445,6.261c.545,7.263,1.179,14.518,1.823,21.773a3.661,3.661,0,0,0,7.308-.064c.638-7.255,1.231-14.513,1.841-21.771" transform="translate(15222.649 8541.848)" fill="#fff"/>
    <path id="Tracé_3594" data-name="Tracé 3594" d="M156.322,153.637a9.4,9.4,0,1,1-9.484,9.452,9.464,9.464,0,0,1,9.484-9.452m3.1,9.29a3.13,3.13,0,0,0-6.259.086,3.13,3.13,0,1,0,6.259-.086" transform="translate(15220.276 8489.689)" fill="#fff"/>
    <path id="Tracé_3595" data-name="Tracé 3595" d="M165.918,70.135c-.61,7.257-1.2,14.516-1.841,21.771a3.661,3.661,0,0,1-7.308.064c-.644-7.254-1.278-14.511-1.823-21.773a5.562,5.562,0,0,1,5.445-6.261c3.253-.024,5.641,2.656,5.527,6.2" transform="translate(15216.16 8535.337)" fill="#4daf27"/>
    <path id="Tracé_3596" data-name="Tracé 3596" d="M165.981,169.413a3.13,3.13,0,1,1-6.259.086,3.13,3.13,0,0,1,6.259-.086" transform="translate(15213.72 8483.204)" fill="#4daf27"/>
    <rect id="Rectangle_2129" data-name="Rectangle 2129" width="163.137" height="188.516" transform="translate(15295 8567.873)" fill="none"/>
  </g>
</svg>
