<svg xmlns="http://www.w3.org/2000/svg" width="310.304" height="198.972" viewBox="0 0 310.304 198.972">
  <g id="Groupe_2413" data-name="Groupe 2413" transform="translate(-329.631 -158.939)">
    <path id="Tracé_2457" data-name="Tracé 2457" d="M107.978,53.866a14.9,14.9,0,0,0-16.558,0c-.142-.059-.268-.138-.414-.195a15.674,15.674,0,0,0-1.727-.586,7.393,7.393,0,0,0-.773-.216l-.481-.119a8.232,8.232,0,0,0-.871-.154c-.368-.064-.714-.108-1.108-.149a12.8,12.8,0,0,0-2.126-.087h-.352a13.585,13.585,0,0,0-1.779.152c-.422.052-.814.1-1.394.219l-.565.11c-.239.049-.571.132-1.132.3-.374.113-.779.239-1.359.443l-.425.169a19.1,19.1,0,0,0-2.368,1.076c-.227.123-.415.242-.6.362l-.218.134c-.467.271-.939.568-1.444.919-.548.379-1.033.746-1.4,1.055l-.583.49c-.476.428-.915.834-1.3,1.208-.108.108-.239.256-.422.46a18.882,18.882,0,0,0-1.324,1.555,27.555,27.555,0,0,0-1.989,2.951c-.239.434-.559,1.021-.9,1.723a18.916,18.916,0,0,0-1,2.36,22.978,22.978,0,0,0-.732,2.418c-.183.738-.309,1.431-.493,2.394L44.584,189.622a30.955,30.955,0,0,0-.355,4.952,29.768,29.768,0,0,0,.648,6,28.69,28.69,0,0,0,1.963,5.944,26.337,26.337,0,0,0,3.173,5.208,23.388,23.388,0,0,0,12.941,8.436,23.135,23.135,0,0,0,7.879.56,25.571,25.571,0,0,0,7.893-2.129,28.654,28.654,0,0,0,7.3-4.815,31.322,31.322,0,0,0,5.295-6.3,31.642,31.642,0,0,0,3.415-7.237l-1.056-.344.017,0v0l1.062.329a40.8,40.8,0,0,0,1.088-4.4c.17-.893.279-2.053.367-3.033l2.37-39.751c18.215-4.7,32.378-16.538,37.986-33.034,7.994-23.495-3.508-50.081-28.593-66.141m26.079,65.663c-7.728,22.725-32.676,35.606-60.1,33.233a13.208,13.208,0,0,1-11.792-17.034L86.959,62.84a13.212,13.212,0,0,1,19.728-6.3c23.183,14.84,35.1,40.269,27.369,62.988" transform="translate(285.403 107.583)" fill="#4daf27"/>
    <g id="Groupe_1716" data-name="Groupe 1716" transform="translate(394.075 211.409)">
      <path id="Tracé_2458" data-name="Tracé 2458" d="M179.722,180.013c-20.2-.6-33.691-12.327-34.338-27l23.184.75c.384,5.3,5.022,8.968,11.394,9.16,5.964.178,9.163-2.44,9.264-5.829.365-12.2-41.108-4.622-40.275-32.411.385-12.877,11.682-23.122,31.473-22.53,19.52.585,30.413,11.723,31.459,26.679l-21.792-.61c-.523-5.171-4.353-8.678-10.86-8.873-5.422-.163-8.469,1.918-8.579,5.576-.361,12.065,40.832,4.75,40.4,32.958C210.654,171.034,198.7,180.581,179.722,180.013Z" transform="translate(-55.881 -77.327)" fill="#004156"/>
      <path id="Tracé_2459" data-name="Tracé 2459" d="M189.258,89.342l22.924-3.509,5.273,34.452c3.572-7.131,11.073-12.808,21.395-14.388,17.025-2.605,30.226,7.447,33.3,27.555l6.69,43.7-22.79,3.488-6.217-40.619c-1.56-10.187-8.052-14.957-16.767-13.622s-13.481,7.826-11.921,18.015l6.217,40.617-22.924,3.509Z" transform="translate(-32.984 -85.833)" fill="#004156"/>
      <path id="Tracé_2460" data-name="Tracé 2460" d="M154.4,112.01l-15.079,38.225c-3.782,9.588-11.171,12.8-19.5,9.512-8.074-3.185-11.41-10.624-7.626-20.211l15.079-38.225L105.835,92.85,89.612,133.977c-7.416,18.8-.87,34.355,15.4,40.774,9.462,3.733,18.722,2.429,25.4-1.934l-2.806,7.118-.975,2.47-.3.758,21.573,8.51.3-.758.974-2.472,26.8-67.923Z" transform="translate(-86.573 -82.171)" fill="#004156"/>
    </g>
    <text id="Business" transform="translate(496.934 320.911)" fill="#4daf27" font-size="27" font-family="Poppins-Bold, Poppins" font-weight="700"><tspan x="0" y="28">Business</tspan></text>
  </g>
</svg>
