<svg id="Groupe_3443" data-name="Groupe 3443" xmlns="http://www.w3.org/2000/svg" xmlns:xlink="http://www.w3.org/1999/xlink" width="117.105" height="117.062" viewBox="0 0 117.105 117.062">
  <defs>
    <clipPath id="clip-path">
      <rect id="Rectangle_2587" data-name="Rectangle 2587" width="117.105" height="117.062" fill="#004156"/>
    </clipPath>
  </defs>
  <g id="Groupe_3442" data-name="Groupe 3442" clip-path="url(#clip-path)">
    <path id="Tracé_4811" data-name="Tracé 4811" d="M0,110.2V43.44a6.99,6.99,0,0,1,1.579-1.409c3.2-2.187,6.375-4.415,9.594-6.576a1.92,1.92,0,0,0,.983-1.831Q12.1,20.149,12.137,6.675A6.352,6.352,0,0,1,17.144.2c.09-.024.157-.131.235-.2H99.7c4.283,1.807,5.247,3.287,5.247,8.059,0,8.573.01,17.147-.018,25.72a1.636,1.636,0,0,0,.831,1.563c3.283,2.21,6.506,4.508,9.8,6.7a3.127,3.127,0,0,1,1.541,2.921q-.05,31.436-.024,62.872c0,5.731-3.513,9.227-9.268,9.227q-20.752,0-41.5,0-28.7,0-57.4,0a8.492,8.492,0,0,1-8.656-6.4c-.054-.175-.03-.386-.259-.459M58.574,3.659q-19.6,0-39.209,0c-2.586,0-3.568.988-3.568,3.589q0,21.6-.024,43.2a2.041,2.041,0,0,0,1.038,1.915Q33.66,63.919,50.476,75.519a13.447,13.447,0,0,0,16.093.026Q83.6,63.855,100.608,52.128a1.343,1.343,0,0,0,.7-1.268q-.041-21.772-.022-43.545c0-2.684-.961-3.657-3.616-3.657H58.574M3.695,47.763c-.017.314-.031.454-.031.595q0,30.062,0,60.124a4.637,4.637,0,0,0,.783,2.652c.277-.29.543-.552.791-.831Q18.2,95.68,31.169,81.055c.455-.513.9-1.035,1.372-1.533a1.852,1.852,0,0,1,2.726-.283,1.826,1.826,0,0,1-.014,2.736c-.145.176-.3.344-.452.515L8.715,111.905c-.365.412-.726.827-1.227,1.4h101.9a1.744,1.744,0,0,0-.6-.92Q96.852,98.912,84.9,85.449c-1.087-1.225-2.2-2.433-3.241-3.692a1.738,1.738,0,0,1,.184-2.55,1.818,1.818,0,0,1,2.484.1,10.089,10.089,0,0,1,.7.756q13.348,15.048,26.7,30.093c.286.322.5.739.955.9a5.377,5.377,0,0,0,.742-3.082q-.011-29.605-.006-59.21v-1c-.505.341-.847.567-1.184.8Q90.611,63.455,68.99,78.347C62.241,83,55,83.043,48.239,78.428c-3.865-2.639-7.709-5.308-11.564-7.962l-32.98-22.7m101.347-8.485v9.787l7.1-4.893-7.1-4.894m-92.936-.037-7.16,4.935,7.16,4.918Z" fill="#004156"/>
    <path id="Tracé_4812" data-name="Tracé 4812" d="M111.265,127.32a6.236,6.236,0,0,1,3.326,1.053c1.405.978,2.821,1.941,4.212,2.939a2.285,2.285,0,0,0,2.94-.007c1.328-.954,2.678-1.88,4.025-2.808a5.792,5.792,0,0,1,6.931-.031q2.033,1.374,4.019,2.817a2.326,2.326,0,0,0,3.037-.013c1.32-.965,2.674-1.885,4.024-2.808a5.71,5.71,0,0,1,6.733-.078c1.865,1.248,3.7,2.54,5.531,3.84a1.841,1.841,0,1,1-2.084,3.01c-1.763-1.2-3.517-2.406-5.246-3.651a2.318,2.318,0,0,0-3.03.015c-1.32.965-2.674,1.886-4.029,2.8a5.754,5.754,0,0,1-6.826.019c-1.388-.936-2.768-1.884-4.124-2.865a2.265,2.265,0,0,0-2.934.011q-1.992,1.432-4.025,2.808a5.79,5.79,0,0,1-6.924.016c-1.353-.919-2.7-1.845-4.026-2.807a2.316,2.316,0,0,0-3.032.016c-1.289.944-2.609,1.847-3.933,2.741a1.845,1.845,0,1,1-2.093-3q2.181-1.561,4.4-3.066a6.069,6.069,0,0,1,3.128-.953" transform="translate(-71.327 -88.412)" fill="#004156"/>
    <path id="Tracé_4813" data-name="Tracé 4813" d="M128.985,70.677a2.067,2.067,0,0,1-1.544-.613c-.8-.735-1.467-2.123-2.384-2.08-.8.037-1.539,1.32-2.306,2.051a1.986,1.986,0,0,1-.957.586,1.744,1.744,0,0,1-1.991-.752,1.715,1.715,0,0,1,.161-2.208,20.349,20.349,0,0,1,1.929-1.94c.568-.487.485-.8-.028-1.247a22.184,22.184,0,0,1-1.776-1.772,1.83,1.83,0,1,1,2.6-2.572c.667.622,1.312,1.27,1.934,1.937.336.36.57.378.913,0,.591-.644,1.217-1.258,1.851-1.86a1.88,1.88,0,0,1,2.741-.175,1.83,1.83,0,0,1-.115,2.734c-.6.637-1.21,1.267-1.86,1.85-.43.385-.367.631.022.991.7.645,1.369,1.321,2.012,2.021a1.729,1.729,0,0,1,.314,2.011,1.669,1.669,0,0,1-1.513,1.034" transform="translate(-82.965 -41.333)" fill="#004156"/>
    <path id="Tracé_4814" data-name="Tracé 4814" d="M226.92,68.714a3.673,3.673,0,0,1,.344-.85c.733-1.053,2.474-1.747,2.39-2.836-.075-.968-1.589-1.8-2.416-2.744a1.451,1.451,0,0,1-.257-1.3,1.814,1.814,0,0,1,3.026-.979,23.227,23.227,0,0,1,2.026,2c.368.4.615.439,1,.022.615-.673,1.265-1.318,1.933-1.938a1.824,1.824,0,1,1,2.619,2.539,16.575,16.575,0,0,1-1.771,1.775c-.65.541-.544.913.035,1.413a18.393,18.393,0,0,1,1.769,1.778,1.82,1.82,0,0,1-2.6,2.543,27.34,27.34,0,0,1-1.936-1.935c-.412-.458-.678-.422-1.078.018-.639.7-1.324,1.365-2.027,2a1.738,1.738,0,0,1-2.022.252,1.9,1.9,0,0,1-1.026-1.769" transform="translate(-157.574 -41.326)" fill="#004156"/>
  </g>
</svg>
