<svg xmlns="http://www.w3.org/2000/svg" width="26.261" height="26.261" viewBox="0 0 26.261 26.261">
  <g id="Groupe_1908" data-name="Groupe 1908" transform="translate(-110.822 -820.643)">
    <ellipse id="Ellipse_78" data-name="Ellipse 78" cx="1.582" cy="1.978" rx="1.582" ry="1.978" transform="translate(132.323 820.925)" fill="#fff"/>
    <circle id="Ellipse_81" data-name="Ellipse 81" cx="1.582" cy="1.582" r="1.582" transform="translate(112.545 831.21)" fill="#fff"/>
    <ellipse id="Ellipse_79" data-name="Ellipse 79" cx="1.582" cy="1.978" rx="1.582" ry="1.978" transform="translate(125.994 827.254)" fill="#fff"/>
    <ellipse id="Ellipse_80" data-name="Ellipse 80" cx="1.978" cy="1.582" rx="1.978" ry="1.582" transform="translate(118.083 825.672)" fill="#fff"/>
    <g id="analytics" transform="translate(110.822 820.643)">
      <g id="Groupe_548" data-name="Groupe 548" transform="translate(0 25.166)">
        <g id="Groupe_547" data-name="Groupe 547">
          <path id="Tracé_284" data-name="Tracé 284" d="M25.713,490.667H.547a.547.547,0,1,0,0,1.094H25.714a.547.547,0,1,0,0-1.094Z" transform="translate(0 -490.667)" fill="#fff"/>
        </g>
      </g>
      <g id="Groupe_550" data-name="Groupe 550" transform="translate(1.094 18.601)">
        <g id="Groupe_549" data-name="Groupe 549">
          <path id="Tracé_285" data-name="Tracé 285" d="M25.163,362.667H21.88a.547.547,0,0,0-.547.547v6.565a.547.547,0,0,0,.547.547h3.283a.547.547,0,0,0,.547-.547v-6.565A.547.547,0,0,0,25.163,362.667Zm-.547,6.565H22.427v-5.471h2.188v5.471Z" transform="translate(-21.333 -362.667)" fill="#fff"/>
        </g>
      </g>
      <g id="Groupe_552" data-name="Groupe 552" transform="translate(7.659 13.13)">
        <g id="Groupe_551" data-name="Groupe 551">
          <path id="Tracé_286" data-name="Tracé 286" d="M153.163,256H149.88a.547.547,0,0,0-.547.547v12.036a.547.547,0,0,0,.547.547h3.283a.547.547,0,0,0,.547-.547V256.547A.547.547,0,0,0,153.163,256Zm-.547,12.036h-2.188V257.094h2.188Z" transform="translate(-149.333 -256)" fill="#fff"/>
        </g>
      </g>
      <g id="Groupe_554" data-name="Groupe 554" transform="translate(14.224 15.319)">
        <g id="Groupe_553" data-name="Groupe 553">
          <path id="Tracé_287" data-name="Tracé 287" d="M281.163,298.667H277.88a.547.547,0,0,0-.547.547v9.848a.547.547,0,0,0,.547.547h3.283a.547.547,0,0,0,.547-.547v-9.848A.547.547,0,0,0,281.163,298.667Zm-.547,9.848h-2.188v-8.754h2.188Z" transform="translate(-277.333 -298.667)" fill="#fff"/>
        </g>
      </g>
      <g id="Groupe_556" data-name="Groupe 556" transform="translate(20.79 8.754)">
        <g id="Groupe_555" data-name="Groupe 555">
          <path id="Tracé_288" data-name="Tracé 288" d="M409.163,170.667H405.88a.547.547,0,0,0-.547.547v16.413a.547.547,0,0,0,.547.547h3.283a.547.547,0,0,0,.547-.547V171.214A.547.547,0,0,0,409.163,170.667Zm-.547,16.413h-2.188V171.761h2.188Z" transform="translate(-405.333 -170.667)" fill="#fff"/>
        </g>
      </g>
      <g id="Groupe_558" data-name="Groupe 558" transform="translate(1.094 9.848)">
        <g id="Groupe_557" data-name="Groupe 557">
          <path id="Tracé_289" data-name="Tracé 289" d="M23.521,192a2.188,2.188,0,1,0,2.188,2.188A2.191,2.191,0,0,0,23.521,192Zm0,3.283a1.094,1.094,0,1,1,1.094-1.094A1.1,1.1,0,0,1,23.521,195.283Z" transform="translate(-21.333 -192)" fill="#fff"/>
        </g>
      </g>
      <g id="Groupe_560" data-name="Groupe 560" transform="translate(7.659 4.377)">
        <g id="Groupe_559" data-name="Groupe 559">
          <path id="Tracé_290" data-name="Tracé 290" d="M151.521,85.333a2.188,2.188,0,1,0,2.188,2.188A2.191,2.191,0,0,0,151.521,85.333Zm0,3.283a1.094,1.094,0,1,1,1.094-1.094A1.1,1.1,0,0,1,151.521,88.616Z" transform="translate(-149.333 -85.333)" fill="#fff"/>
        </g>
      </g>
      <g id="Groupe_562" data-name="Groupe 562" transform="translate(14.224 6.565)">
        <g id="Groupe_561" data-name="Groupe 561">
          <path id="Tracé_291" data-name="Tracé 291" d="M279.521,128a2.188,2.188,0,1,0,2.188,2.188A2.191,2.191,0,0,0,279.521,128Zm0,3.283a1.094,1.094,0,1,1,1.094-1.094A1.1,1.1,0,0,1,279.521,131.283Z" transform="translate(-277.333 -128)" fill="#fff"/>
        </g>
      </g>
      <g id="Groupe_564" data-name="Groupe 564" transform="translate(20.79)">
        <g id="Groupe_563" data-name="Groupe 563">
          <path id="Tracé_292" data-name="Tracé 292" d="M407.521,0a2.188,2.188,0,1,0,2.188,2.188A2.191,2.191,0,0,0,407.521,0Zm0,3.283a1.094,1.094,0,1,1,1.094-1.094A1.1,1.1,0,0,1,407.521,3.283Z" transform="translate(-405.333)" fill="#fff"/>
        </g>
      </g>
      <g id="Groupe_566" data-name="Groupe 566" transform="translate(17.026 2.801)">
        <g id="Groupe_565" data-name="Groupe 565">
          <path id="Tracé_293" data-name="Tracé 293" d="M337.142,54.768a.547.547,0,0,0-.774,0l-4.246,4.245a.547.547,0,0,0,.774.774l4.246-4.245A.548.548,0,0,0,337.142,54.768Z" transform="translate(-331.963 -54.608)" fill="#fff"/>
        </g>
      </g>
      <g id="Groupe_568" data-name="Groupe 568" transform="translate(10.879 6.467)">
        <g id="Groupe_567" data-name="Groupe 567">
          <path id="Tracé_294" data-name="Tracé 294" d="M216.319,127.1l-3.515-1a.547.547,0,0,0-.3,1.053l3.515,1a.547.547,0,0,0,.3-1.053Z" transform="translate(-212.108 -126.078)" fill="#fff"/>
        </g>
      </g>
      <g id="Groupe_570" data-name="Groupe 570" transform="translate(3.895 7.041)">
        <g id="Groupe_569" data-name="Groupe 569">
          <path id="Tracé_295" data-name="Tracé 295" d="M81.034,137.479a.547.547,0,0,0-.768-.088l-4.125,3.289a.547.547,0,0,0,.682.857l4.125-3.289A.547.547,0,0,0,81.034,137.479Z" transform="translate(-75.935 -137.273)" fill="#fff"/>
        </g>
      </g>
    </g>
  </g>
</svg>
