<svg xmlns="http://www.w3.org/2000/svg" width="22.975" height="22.674" viewBox="0 0 22.975 22.674">
  <path id="home" d="M21.089,9.427h0L12.247.585a1.995,1.995,0,0,0-2.822,0L.588,9.421.579,9.43a1.994,1.994,0,0,0,1.328,3.4q.031,0,.062,0h.352v6.506a2.338,2.338,0,0,0,2.335,2.335H8.115a.635.635,0,0,0,.635-.635v-5.1a1.067,1.067,0,0,1,1.065-1.065h2.04a1.067,1.067,0,0,1,1.065,1.065v5.1a.635.635,0,0,0,.635.635h3.459a2.338,2.338,0,0,0,2.335-2.335V12.833h.327a2,2,0,0,0,1.412-3.405Zm0,0" transform="translate(0.651 0.5)" fill="none" stroke="#004156" stroke-width="1"/>
</svg>
