<svg xmlns="http://www.w3.org/2000/svg" width="25.896" height="25.898" viewBox="0 0 25.896 25.898">
  <path id="home" d="M25.2,11.265l0,0L14.633.7a2.384,2.384,0,0,0-3.372,0L.7,11.257l-.011.011A2.383,2.383,0,0,0,2.278,15.33q.036,0,.074,0h.421v7.775A2.793,2.793,0,0,0,5.564,25.9H9.7a.759.759,0,0,0,.759-.759v-6.1a1.274,1.274,0,0,1,1.273-1.273h2.438a1.274,1.274,0,0,1,1.273,1.273v6.1a.759.759,0,0,0,.759.759h4.133a2.793,2.793,0,0,0,2.791-2.79V15.334h.39A2.384,2.384,0,0,0,25.2,11.265Zm0,0" transform="translate(0.001)" fill="#fff"/>
</svg>
