<svg id="Groupe_3455" data-name="Groupe 3455" xmlns="http://www.w3.org/2000/svg" xmlns:xlink="http://www.w3.org/1999/xlink" width="25.738" height="25.74" viewBox="0 0 25.738 25.74">
  <defs>
    <clipPath id="clip-path">
      <rect id="Rectangle_2596" data-name="Rectangle 2596" width="25.738" height="25.74" fill="#fff"/>
    </clipPath>
  </defs>
  <g id="Groupe_3453" data-name="Groupe 3453" clip-path="url(#clip-path)">
    <path id="Tracé_4816" data-name="Tracé 4816" d="M3.37,0H16.389c.017.015.032.04.051.043A3.748,3.748,0,0,1,19.706,3.82c0,1.139.04,2.279-.015,3.415a1.517,1.517,0,0,0,.63,1.458.074.074,0,0,1,.018.018c.087.126.159.094.253,0,.254-.266.518-.524.78-.783a.765.765,0,0,1,1.189-.005c.269.264.538.528.8.8.093.1.146.1.238,0,.278-.29.561-.576.852-.852a.747.747,0,0,1,1.044-.029,2.1,2.1,0,0,1,.246.356v5.278c-.054.013-.048.059-.055.1A3.838,3.838,0,0,1,21.766,16.7c-2.613-.039-5.226-.007-7.839-.015-.207,0-.259.045-.258.256.008,2.647,0,5.293.008,7.94a.791.791,0,0,1-.459.794.765.765,0,0,1-.906-.231c-.262-.26-.526-.517-.78-.784-.092-.1-.145-.1-.238,0-.266.279-.54.549-.816.818a.757.757,0,0,1-1.153-.006c-.269-.264-.538-.528-.8-.8-.1-.1-.154-.112-.256,0-.259.274-.529.537-.8.8a.761.761,0,0,1-1.171,0c-.251-.246-.5-.491-.744-.748-.126-.135-.206-.167-.347-.009-.24.268-.5.515-.761.766a.756.756,0,0,1-1.153,0q-.422-.413-.833-.836c-.086-.089-.14-.1-.234-.005q-.458.448-.933.877a.746.746,0,0,1-1.025.048A.867.867,0,0,1,0,24.832q0-10.49,0-20.98A3.819,3.819,0,0,1,2.828.144,2.3,2.3,0,0,0,3.37,0m8.8,23.124V20.455q0-8.278,0-16.556a3.938,3.938,0,0,1,.615-2.187c.038-.06.109-.105.1-.191a.234.234,0,0,0-.05-.012c-3.015,0-6.03-.011-9.044.007A2.314,2.314,0,0,0,1.511,3.849q0,9.585,0,19.169c0,.06-.035.133.037.185l.184-.171a.791.791,0,0,1,1.282.023c.22.219.448.43.654.66.144.16.242.193.4.01.224-.259.479-.491.724-.732a.761.761,0,0,1,1.171,0c.264.257.53.513.779.784.119.129.185.109.293-.006.247-.262.505-.513.762-.766A.765.765,0,0,1,8.989,23c.269.264.538.528.8.8.093.1.147.1.238,0,.188-.2.389-.393.584-.588.642-.642.836-.656,1.558-.086m6.791-7.944a4.156,4.156,0,0,1-.765-2.618c.015-2.914.009-5.828,0-8.741a2.261,2.261,0,1,0-4.521-.007Q13.67,9.39,13.67,14.967c0,.178.044.218.219.217,1.624-.007,3.249,0,4.873,0Zm.749-4.947c0,.9,0,1.76,0,2.62a2.109,2.109,0,0,0,.009.276,2.87,2.87,0,0,0,.071.369,2.257,2.257,0,0,0,4.44-.562c.01-.821,0-1.641,0-2.462,0-.069.033-.147-.032-.214-.027.024-.052.044-.075.066a.792.792,0,0,1-1.3-.008c-.243-.243-.491-.481-.727-.73-.1-.1-.154-.11-.256,0-.271.285-.55.563-.835.835a.737.737,0,0,1-.962.106,3.983,3.983,0,0,1-.339-.293" transform="translate(0)" fill="#fff"/>
    <path id="Tracé_4817" data-name="Tracé 4817" d="M50.19,190.394q-1.469,0-2.938,0a.757.757,0,1,1-.014-1.507q2.963,0,5.926,0a.755.755,0,1,1-.011,1.507q-1.482,0-2.963,0" transform="translate(-43.302 -176.197)" fill="#fff"/>
    <path id="Tracé_4818" data-name="Tracé 4818" d="M48.864,149.43c-.635,0-1.27,0-1.9,0-.316,0-.537-.309-.539-.747s.218-.76.53-.76q1.921,0,3.842,0c.376,0,.622.544.474,1.049-.091.312-.258.458-.481.458-.64,0-1.281,0-1.921,0" transform="translate(-43.301 -137.984)" fill="#fff"/>
    <path id="Tracé_4819" data-name="Tracé 4819" d="M49.485,236.369H47.129a.756.756,0,0,1,.007-1.507q2.366,0,4.732,0a.737.737,0,0,1,.621,1.026.625.625,0,0,1-.607.48c-.8,0-1.6,0-2.4,0" transform="translate(-43.316 -219.084)" fill="#fff"/>
  </g>
</svg>
