<svg xmlns="http://www.w3.org/2000/svg" xmlns:xlink="http://www.w3.org/1999/xlink" width="24.311" height="27.674" viewBox="0 0 24.311 27.674">
  <defs>
    <clipPath id="clip-path">
      <rect id="Rectangle_2498" data-name="Rectangle 2498" width="24.311" height="27.674" fill="#fff"/>
    </clipPath>
  </defs>
  <g id="Groupe_3419" data-name="Groupe 3419" transform="translate(0)">
    <g id="Groupe_3369" data-name="Groupe 3369" transform="translate(0)" clip-path="url(#clip-path)">
      <path id="Tracé_4778" data-name="Tracé 4778" d="M0,21.729a.519.519,0,0,1,.52-.3c.807.009,1.614,0,2.421.009.19,0,.251-.041.253-.286q.036-8,.086-16c0-.6.114-.731.615-.731q4.665,0,9.329.005c.179,0,.253-.065.32-.262A5.724,5.724,0,0,1,18.813,0c3.293.071,5.826,3.515,5.463,7.428-.316,3.409-2.737,5.984-5.606,5.949-.209,0-.256.053-.255.3q.012,5.106,0,10.213a3.6,3.6,0,0,1-2.51,3.709,4.212,4.212,0,0,1-1.039.071q-5.816,0-11.632,0c-1.592,0-2.775-1.1-3.175-2.943-.012-.057.012-.14-.063-.165ZM13.574,9.363a.38.38,0,0,0,0-.085A7.766,7.766,0,0,1,13.2,5.615c.026-.2-.008-.25-.181-.25q-4.369.01-8.737,0c-.182,0-.218.06-.219.266q-.036,7.76-.089,15.52c0,.243.056.29.248.289q4.024-.012,8.049-.005c.7,0,.723.033.729.882a16.656,16.656,0,0,0,.03,2.069,2.432,2.432,0,0,0,2.49,2.333,2.606,2.606,0,0,0,2.1-2.77c.008-3.49,0-6.98.006-10.47,0-.18-.048-.232-.19-.274a5.56,5.56,0,0,1-3.285-2.69.331.331,0,0,0-.325-.2c-1.25.008-2.5,0-3.751,0a1.81,1.81,0,0,1-.19,0,.482.482,0,0,1-.006-.946,2.02,2.02,0,0,1,.214,0h3.479m9.949-2.671c0-3.167-2.149-5.732-4.8-5.733s-4.811,2.574-4.81,5.748,2.146,5.724,4.8,5.732,4.811-2.568,4.808-5.747M13.252,26.725a3.924,3.924,0,0,1-.99-2.092,11.631,11.631,0,0,1-.047-1.954c0-.27-.068-.317-.276-.317q-5.437.011-10.875.005c-.048,0-.1,0-.142,0-.086-.008-.134.025-.132.141a16.159,16.159,0,0,0,.036,1.927A2.448,2.448,0,0,0,3.14,26.724q4.951.005,9.9,0Z" transform="translate(0 0)" fill="#fff"/>
      <path id="Tracé_4779" data-name="Tracé 4779" d="M28.189,381.737h-.212q-4.951,0-9.9,0a2.448,2.448,0,0,1-2.312-2.289,16.159,16.159,0,0,1-.036-1.927c0-.116.045-.148.132-.141.047,0,.095,0,.142,0q5.437,0,10.875-.005c.208,0,.279.046.276.317a11.631,11.631,0,0,0,.047,1.954,3.924,3.924,0,0,0,.99,2.092" transform="translate(-14.936 -355.013)" fill="#fff"/>
      <path id="Tracé_4780" data-name="Tracé 4780" d="M194.476,298q-1.257,0-2.514,0a.472.472,0,1,1-.006-.944q2.538,0,5.076,0a.472.472,0,1,1-.018.944h-2.538" transform="translate(-181.981 -279.453)" fill="#fff"/>
      <path id="Tracé_4781" data-name="Tracé 4781" d="M194.357,227.65q1.268,0,2.537,0a.466.466,0,1,1,.019.932q-2.56,0-5.121,0a.454.454,0,0,1-.427-.623.4.4,0,0,1,.432-.311c.853.005,1.707,0,2.56,0" transform="translate(-181.851 -214.158)" fill="#fff"/>
      <path id="Tracé_4782" data-name="Tracé 4782" d="M125.371,143.3a1.375,1.375,0,0,1-1.26,1.453,1.48,1.48,0,1,1,1.26-1.453m-1.252.5a.515.515,0,0,0-.01-1.026.515.515,0,0,0,.01,1.026" transform="translate(-116.759 -133.428)" fill="#fff"/>
      <path id="Tracé_4783" data-name="Tracé 4783" d="M125.368,212.418a1.363,1.363,0,0,1-1.283,1.423,1.4,1.4,0,0,1-1.236-1.486,1.275,1.275,0,1,1,2.52.063m-1.26.472a.492.492,0,0,0,.479-.506.505.505,0,0,0-.47-.521.493.493,0,0,0-.475.51.488.488,0,0,0,.465.517" transform="translate(-116.757 -198.419)" fill="#fff"/>
      <path id="Tracé_4784" data-name="Tracé 4784" d="M125.373,281.521a1.372,1.372,0,0,1-1.255,1.456,1.388,1.388,0,0,1-1.265-1.478,1.273,1.273,0,1,1,2.52.022m-1.25.506a.5.5,0,0,0,.468-.519.508.508,0,0,0-.481-.509.5.5,0,0,0-.464.525.485.485,0,0,0,.477.5" transform="translate(-116.761 -263.465)" fill="#fff"/>
      <path id="Tracé_4785" data-name="Tracé 4785" d="M297.89,83.09a1.389,1.389,0,0,1-.676.16,1.495,1.495,0,0,1-1.157-.526,1.852,1.852,0,0,1-.34-.6,2.494,2.494,0,0,1,0-1.556,1.783,1.783,0,0,1,.347-.6,1.52,1.52,0,0,1,.519-.379,1.577,1.577,0,0,1,1.27,0,1.225,1.225,0,0,1,.417.294.155.155,0,0,1,0,.2l-.327.391a.1.1,0,0,1-.158,0,.621.621,0,0,0-.2-.15.765.765,0,0,0-.34-.081.742.742,0,0,0-.351.084.843.843,0,0,0-.274.231,1.107,1.107,0,0,0-.179.348,1.447,1.447,0,0,0-.064.44,1.489,1.489,0,0,0,.064.447,1.1,1.1,0,0,0,.177.348.811.811,0,0,0,.27.226.739.739,0,0,0,.345.081.7.7,0,0,0,.379-.1.791.791,0,0,0,.189-.164.1.1,0,0,1,.158,0l.335.377a.155.155,0,0,1,0,.2,1.473,1.473,0,0,1-.412.332" transform="translate(-280.937 -74.749)" fill="#fff"/>
      <path id="Tracé_4786" data-name="Tracé 4786" d="M358.861,81.966v.469a.127.127,0,0,0,.114.137h.937a.127.127,0,0,1,.114.137v.444a.127.127,0,0,1-.114.137h-.937a.127.127,0,0,0-.114.137V84.55a.127.127,0,0,1-.114.137h-.49a.127.127,0,0,1-.114-.137V81.224a.127.127,0,0,1,.114-.137h1.754a.127.127,0,0,1,.114.137v.469a.127.127,0,0,1-.114.137h-1.035a.127.127,0,0,0-.114.137" transform="translate(-340.384 -76.282)" fill="#fff"/>
      <path id="Tracé_4787" data-name="Tracé 4787" d="M398.951,84.6l-.177-.534a.117.117,0,0,0-.106-.086h-1.009a.117.117,0,0,0-.107.089l-.166.529a.117.117,0,0,1-.107.089h-.54a.136.136,0,0,1-.105-.189l1.168-3.326a.116.116,0,0,1,.105-.084h.554a.116.116,0,0,1,.106.084l1.156,3.326a.136.136,0,0,1-.106.189h-.559a.116.116,0,0,1-.106-.086m-.888-2.2-.217.7a.135.135,0,0,0,.107.184h.43a.135.135,0,0,0,.107-.183l-.213-.7a.109.109,0,0,0-.215,0" transform="translate(-376.959 -76.282)" fill="#fff"/>
    </g>
  </g>
</svg>
