<svg id="Groupe_3420" data-name="Groupe 3420" xmlns="http://www.w3.org/2000/svg" xmlns:xlink="http://www.w3.org/1999/xlink" width="19.657" height="22.932" viewBox="0 0 19.657 22.932">
  <defs>
    <clipPath id="clip-path">
      <rect id="Rectangle_2494" data-name="Rectangle 2494" width="19.657" height="22.932" fill="#fff"/>
    </clipPath>
  </defs>
  <g id="Groupe_3360" data-name="Groupe 3360" clip-path="url(#clip-path)">
    <path id="Tracé_4776" data-name="Tracé 4776" d="M9.8,112.014H2.612A2.464,2.464,0,0,1,0,109.406q0-5.591,0-11.181a2.458,2.458,0,0,1,2.578-2.59c.486,0,.972,0,1.458,0a.82.82,0,1,1,0,1.637c-.512,0-1.023,0-1.535,0A.819.819,0,1,0,2.5,98.91q6.844,0,13.689,0c.157,0,.209-.035.2-.2-.015-.186,0-.375,0-.563a.822.822,0,0,0-.875-.883c-.5,0-1.006,0-1.51,0a.828.828,0,0,1-.89-.817.814.814,0,0,1,.885-.818,13.991,13.991,0,0,1,2.017.045,2.439,2.439,0,0,1,2.006,2.3c.01.3.007.6,0,.9a.222.222,0,0,0,.149.249,2.4,2.4,0,0,1,1.489,2.327q.009,4,0,8.009a2.454,2.454,0,0,1-2.561,2.556q-3.646,0-7.292,0m-8.147-11.6a.632.632,0,0,0-.016.091q0,4.529,0,9.057a.806.806,0,0,0,.839.813q7.343,0,14.686,0a.813.813,0,0,0,.85-.855c0-.469-.006-.938,0-1.407,0-.157-.035-.2-.2-.2-.733.01-1.467,0-2.2.005a2.591,2.591,0,0,1-.853-.134,2.453,2.453,0,0,1,.746-4.777c.767-.012,1.535-.007,2.3,0,.151,0,.206-.026.2-.192-.013-.434,0-.87,0-1.3a.847.847,0,0,0-.974-.964q-6.78,0-13.56,0a5.547,5.547,0,0,1-1.828-.133m15.02,5.868c.392,0,.784-.006,1.176,0,.135,0,.172-.037.169-.17q-.012-.652,0-1.3c0-.132-.032-.172-.168-.171-.758.007-1.517,0-2.275,0a.818.818,0,1,0,0,1.635c.366.006.733,0,1.1,0" transform="translate(0 -89.082)" fill="#fff"/>
    <path id="Tracé_4777" data-name="Tracé 4777" d="M86.218,5.346V5.1c0-1.425,0-2.849,0-4.274A.816.816,0,0,1,87.827.621a1.347,1.347,0,0,1,.028.329q0,2.073,0,4.146v.285c.377-.373.72-.722,1.075-1.059A.819.819,0,0,1,90.2,5.332a1.181,1.181,0,0,1-.179.216Q88.847,6.726,87.669,7.9a.812.812,0,0,1-1.259.005Q85.223,6.723,84.04,5.535a.822.822,0,1,1,1.153-1.166c.328.323.651.652.977.977,0,0,.014,0,.048,0" transform="translate(-78.028 -0.001)" fill="#fff"/>
  </g>
</svg>
