<svg xmlns="http://www.w3.org/2000/svg" width="698.339" height="719.936" viewBox="0 0 698.339 719.936">
  <path id="Tracé_6407" data-name="Tracé 6407" d="M-124.578-84c.408,4.705.76,9.417,1.254,14.112.181,1.717.212,3.462-1.229,4.459-2.335,1.616-2.882,4.2-4.565,6.773,3.529-.179,3.287,1.269,3.33,4.028.075,4.889-1.034,10.192,2.062,14.717a5.181,5.181,0,0,1,.742,3.948c-.593,3.531.752,6.438,2.668,9.23a6.5,6.5,0,0,1,.821,2.052c1.214,4.743,4.135,5.941,8.106,3.3,3.122-2.08,4.538-1.551,5.477,2.136.683,2.684,1.944,4.447,5.092,4.409C-90-14.972-86.063-4.675-89.356,3.244c-.176.424-.659.841-.134,1.295a1.651,1.651,0,0,0,2.1.162C-83.06,1.069-76.355.652-73.8-5.46c.508-1.216,1.663-2.067,1.049-3.652a2.18,2.18,0,0,1,.559-2.449c3.892-3.027,2.433-7.813,3.921-11.618l-.014.023c3.056,1.081,8.028-.881,9.667-3.815,1.844-3.3,3.435-3.319,5.48-.06,1.029,1.639,5.844,2.423,7.027.96,2.392-2.955,5.317-2.607,8.526-1.965,3.3.661,3.441,3.278,3.817,5.686a5.778,5.778,0,0,0,4.007,4.9c4.6,1.8,5.025,2.875,3.971,7.565-.22.978-1.849,2.155-.219,3.122a3.184,3.184,0,0,0,3.8-.044c1.5-1.054,2.915-1.327,4.883.345,1.775,1.508,4.983,1.6,7.365,1.718,4.636.234,8.34,2.914,12.7,3.637C4.379-.839,4.923.732,5.613,2.094,6.577,4,7.164,6.675,10.4,5.074c4.418-2.185,5.666-4.484,4.117-7.734-.054-.113-.123-.217-.182-.327-4.035-7.6-.547-13.913,8.16-13.53,4.15.183,7.861-.782,11.566-1.777a9.93,9.93,0,0,1,9.414,1.811c1.884,1.477,3.109,1.214,4.1-.891a3.932,3.932,0,0,1,.819-1.249c2.724-2.489,2.757-4.117-.835-6.182-3.689-2.12-1.779-6.037-1.222-9.148.24-1.34.791-2.79.4-3.974-1.2-3.665.475-6.5,2.209-9.371.618-1.021,1.122-2.342,2.753-2.107a4.477,4.477,0,0,1,3.171,2.294A18.326,18.326,0,0,0,66.212-39.4c1.351.311,2.588.825,3.889,1.2,2.478.72,3.651-1.258,5.014-2.571,1.63-1.571-1-1.466-1.123-2.323-.424-3.056-1.366-6.384.609-9.028,1.754-2.349,4.718-2.3,7.228-1.1,1.729.822,2.809.027,4.108-.633a29.22,29.22,0,0,1,8.018-2.968l1.424-.239c3.053.563,4.5,2.02,3.047,5.244-.861,1.909-.858,3.539,1.427,4.646,2.528,1.224,2.62,3.179.909,5.188-1.789,2.1-.886,5.036-2.484,7.308-.544.774,1.17,2.112,2.551,2.7,4,1.7,4.16,2.358,2.01,6.233a3.943,3.943,0,0,1-.46.549c2.661,2.392,1.09,5.241,1.336,7.984.389,4.343-2.342,6.94-3.345,10.391-.244.838-2.561.91-1.778,1.827,1.139,1.334,1.278,3.312,3.429,4.132a35.073,35.073,0,0,0,13.672,2.476,4.955,4.955,0,0,0,5.259-4.756c.4-3.848,2.763-4.316,5.552-4.048,1.489.143,1.7.086,2-1.428a47.921,47.921,0,0,1,2.327-7c.161-.448.5-1.134.828-1.177,4.644-.613,6.328-5.583,10.4-7,.939-.327,1.8-.854,2.854-.339a5.953,5.953,0,0,0,6.053-.729c2.652-2.043,5.249-1.636,8.046-1.307,1.608.189,3.327.647,4.8-.127,2.039-1.075,3.556-.581,4.991.945,1.818,1.935,2.6,1.111,3.527-.987,1.839-4.164,4.147-8.134,4.3-12.851.017-.49.3-1.183.068-1.44-4.589-5.166-1.514-11.075-1.093-16.476.186-2.388,2.694-5.141,4.069-7.777.93-1.781,1.357-3.194-.849-4.337a3.16,3.16,0,0,1-1.352-1.717c-1.387-4.336-2.677-8.7-4-13.061h2.253a28.552,28.552,0,0,1,3.005,10.795,1.764,1.764,0,0,0,.46,1.008c2.074,2.063,5.181,4.026,2.772,7.383-1.682,2.343-1.67,5.194-3.57,7.586-2.17,2.732-1.587,6.848-1.542,10.447-.015.309-.032.617-.05.924l.761-.233c-.8,2.531,2.039,3.83,1.978,6.329-.118,4.813-2.287,8.885-4.2,12.983-1.138,2.44-1.161,4.291.466,6.154,2.743,3.142,4.647,6.969,8,9.626.856.68,1.6,1.25,2.656.783,5.709-2.527,11.94-2.352,17.841-2.274,2.612.034,5.819,1.475,8.856,1.9a1.352,1.352,0,0,1,.892.638c2.414,5.032,6.033,9.557,7.285,15.039.7,3.069,2.592,4.352,4.928,5.448.908.426,2.482.726,2.311,1.525-.8,3.715,2.3,5.1,3.939,7.374a3.586,3.586,0,0,1,.907,3.143,5.237,5.237,0,0,0,1.168,5.732c1.639,1.75-1.277,3.289-.943,5.084,6,1.352,11.907,2.749,16.826,6.675,1.247.995,2,1.991,1.516,3.824-.645,2.441-.533,4.594,2.89,5.127,2.535.395,3.013,3.1,4.209,4.937.65,1,.818,2.513,2.574.8,2.736-2.661,6.2-3.033,9.732-1.523,1.747-3.492,5.1-4.885,8.588-3.4,2.851,1.213,2.79,3.535,1.889,5.993-.4,1.1-1.822,2.1-.642,3.324.854.888,2.15.386,3.227.179,5.313-1.018,5.745-.807,8.224,4.465,2.119-1.523,4.22-1.966,6.47-.092,1.839,1.531,2.963.282,2.9-1.5-.126-3.5,2.763-6.406,1.663-10.116a2.032,2.032,0,0,1,2.214-2.424c5.255.483,9.1-2.061,11.934-6.038,1.824-2.561,3.3-2.265,5.552-.815,2.106,1.356,4.552,3.2,6.3-.665a2.1,2.1,0,0,1,1.589-.785c2.408-.1,4.859.143,5.2-3.338.068-.706,1.326-1.087,2.253-.969a4.215,4.215,0,0,0,3.532-.928c2.227-2.407,4.793-2.2,7.495-1.467,2.846.769,5.1.375,7.292-1.964,2-2.138,5.056-2.665,7.922-3.031,2.313-.3,4.631.014,6.815-1.423,1.512-1,2.9.465,3.8,1.59,1.362,1.707,2.874,1.727,4.913,1.666,4.583-.139,9.2.347,13.767.489,4.454.138,8.265,3.071,12.85,2.071,1.726-.376,2.054,1.307,2.092,2.826.018.7-1.347,1.673.2,2.1a2.509,2.509,0,0,0,2.427-.685c1.917-1.883,3.918-3.691,5.727-5.674.833-.914,1.718-1.59,2.857-1.367,1.369.267,1.437,1.555,1.465,2.7a15.385,15.385,0,0,1-.054,2.249c-.357,2.941.326,4.412,3.834,3.755,2.932-.549,5.855,2.833,6.667,7.558a13.823,13.823,0,0,0,1.827,4.423c.826,1.506,1.844,2.033,3.221.665,2.914-2.893,4.494-.809,5.519,1.7,1.939,4.744,4.366,9.242,6.516,13.867,3.435,7.385,9.167,12.719,14.61,18.38,1.488,1.548,2.823,1.8,4.116-.422a22.314,22.314,0,0,1,3.969-5.427c2.715-2.46,1.205-3.807-.954-5.013a16.755,16.755,0,0,1-4.256-3.019,5.351,5.351,0,0,1-.59-7.192c1.416-2.166,1.441-4.3-.128-6.247-3.644-4.533-3.567-8.691.45-13a16,16,0,0,1,1.687-1.486c1.318-1.065,1.5-2.129.291-3.474-2.778-3.1-3.634-6.468-1.258-10.245,1.416-2.249-.146-4.277-1.052-5.965a24.071,24.071,0,0,1-2.63-14.491,7.533,7.533,0,0,0-.367-2.946,5.479,5.479,0,0,1,1.462-5.81c3-3.251,2.611-4.7-1.447-6.655a16.843,16.843,0,0,1-2.314-1.226c-1.8-1.249-4.579-2.323-3.616-4.989,1.009-2.794-.116-7.321,5-7.594.9-.048,2.142-.587,2.11-1.776-.035-1.238-1.3-.921-2.064-.97-6.99-.448-8.351-6.309-10.382-11.188a54.716,54.716,0,0,0-3.49-7.825c-1.675-2.72-1.632-4.864,1.132-6.7l.706-.957a.869.869,0,0,0,.129-.529c.625-.826,1.144-1.644-.149-2.347a.487.487,0,0,0-.42-.143l-1.712-.7.036.01q-.034-1.113-.066-2.225l-.006.01.783-.746-.02.017.829-.713-.028.021.812-.87c3.289-3.617,3.319-8.458,4.682-12.781.4-1.28.615-2.082,2-2.7,3.215-1.443,3.836-3.586,1.812-6.48-1.4-2-.264-3.854-.345-5.767h3c-.7,1.871-1.208,3.523.254,5.522,2.075,2.837.756,5.92-1.5,7.684-2.763,2.157-3.326,4.986-4.185,7.9a31.249,31.249,0,0,1-1.809,5.3c-1.15,2.278-3.686,3.967-1.313,7.165.837,1.127-.144,3.641-1.527,4.705-2.221,1.709-1.451,3.1-.445,5.049a69.855,69.855,0,0,1,5.163,11.518c1.129,3.721,3.659,4.737,6.851,5.207,1.909.282,4.051.42,4.408,2.677s-1.545,3.428-3.185,4.657c-1.14.855-2.924.237-3.653,2.125-1.5,3.884-1.1,5.208,2.787,7.04,6.683,3.15,7.324,5.58,2.906,11.222a3.013,3.013,0,0,0-.926,2.332c.867,6.951.023,14.222,4.057,20.573a5.052,5.052,0,0,1-.163,5.674c-1.622,2.609-1.038,4.893.874,7.177,2.737,3.27,2.511,4.66-.793,7.453-3.952,3.342-4.156,6.589-1.244,10.754,1.639,2.342,2.572,5.045.784,8.032-2.064,3.447-1.7,5.1,1.889,6.928,4.855,2.467,7.264,5.883,5.972,11.44a3.654,3.654,0,0,0,.22,2.2c2.045,4.446,1.258,8.268-2.381,11.5-1.518,1.35-.995,1.963.7,2.407a5.366,5.366,0,0,1,4.293,5.05c.245,2.608-1.092,4.313-3.377,5.262-2.523,1.048-2.605,3.967-4.214,5.437-2.843,2.6-3.034,5.91-3.943,9.159-.557,1.991.155,2.466,1.784,2.725a68.6,68.6,0,0,1,6.99,1.234c2.781.746,4.361,2.455,3.22,5.579-.785,2.152-.489,3.845,1.705,5.059.692.382,1.61,1.387,1.526,1.977-.707,4.933,4.048,8.561,3.132,13.515-.094.506.421,1.124.653,1.691l.036,1.521c1.584,13.033,4.193,25.881,6.933,38.709a92.629,92.629,0,0,1,2.2,17.077c.134,5.364-2.739,8.935-8.266,9.424-5.039.445-5.481,1.245-3.031,5.481,3.005,5.195,1.8,7.9-3.984,8.674-5.929.788-7.186,6.334-10.262,9.99-1.147,1.361-1.07,4.432-3.956,1.722-.828-.778-1.4.081-1.374.9.191,7.521-6,12.183-8.332,18.622-2.745,7.572-7.126,14.477-7.324,22.981-.182,7.736-3.524,15-4.43,22.679-.322,2.733-.87,5.476,1.292,7.816.948,1.025.514,2.07-.183,3.055-1.228,1.735-2.321,3.584-3.7,5.189-2.258,2.628-4.026,5.344-3.875,9.022a3.156,3.156,0,0,1-3.121,3.517c-2.5.29-3.778,1.91-4.962,4.019-3.67,6.538-7.569,12.946-11.368,19.411-1.865,3.173-2.934,6.182.132,9.472,3.835,4.114-.684,7.044-2.173,10.119-1.162,2.4-3.212,4.165-.264,6.54.212.171.185.71.179,1.076-.173,10.43,4.1,19.965,5.87,29.974.853,4.815,3.82,8.077,5.535,12.17,1.3,3.1,3,6.02,3.444,9.42q.168,1.03.334,2.061a41.6,41.6,0,0,0,5.233,18.2c3.143,5.756,3.216,11.705,2.254,17.816-.538,3.417-.007,5.3,4.014,4.594,2.566-.453,3.427.787,2.759,3.258-.194.714-.1,1.5-.259,2.231-.354,1.611-.152,2.847,1.468,3.789,1.484.864,2.608.264,3.809-.4,1.611-.885,3.278-3.538,4.574-2.709,3.08,1.968,6.781,2.44,9.658,4.571a4.6,4.6,0,0,1,1.591,4.7c-.941,5.97.822,11.623,2.63,17.146a28.965,28.965,0,0,1,1.814,7.179q-.08.632-.161,1.265c-.3.674-.454,1.786-.935,1.955-4.184,1.467-2.44,3.342-1.566,6.492,1.2,4.326,2.065,8.794,3.39,13.161.753,2.483-3.528,6.73-6.084,6.3-3.976-.667-7.986.663-12.065-1.171-2.608-1.173-5.642,1.025-8.215,2.531l-.9.154c-4.251-2.68-8.582-4.989-13.85-3.069l.018.071c-.289-.662-.547-.536-.788.031l-1.53.276-.786-.25q.027-1.138.055-2.276l7.457-.913a10.254,10.254,0,0,1,6.872,2.326c1.709,1.962,3.43,1.071,5.152.023l7.672-1.521a.867.867,0,0,0,.385.188l1.092.665c2.9-.077,5.8-.145,8.695-.231,3.473-.1,4.37-1.761,3.357-4.977-.936-2.967-2.857-5.724-2.367-9.071.158-.695-.193-.9-.813-.84-2.248-2.029-.679-4.253-.647-6.523.042-3.005.79-4.134,3.672-3.9.521.014.608-.288.521-.717.478-2.229-.509-4.112-1.29-6.1a48.419,48.419,0,0,1-3.17-16.408c-.061-2.22.532-4.631-2.079-5.228-3.151-.72-5.576-5.392-9.707-1.688-1.456,1.306-3.493,2.845-5.969,1.485-2.614-1.436-4.233-3.186-3.128-6.486.9-2.7-.374-3.584-3.03-3.116-3.037.536-4.1-.957-3.661-3.836.167-1.11.247-2.232.363-3.35.581-5.624.77-11.089-2.093-16.392a43.885,43.885,0,0,1-5.164-15.547,2.894,2.894,0,0,0-.568-2.227,19.787,19.787,0,0,0-5.54-15.4c-2.932-2.834-2.477-5.286-3.01-8.136-.113-.6-.434-1.167-.571-1.769-2.143-9.437-5.788-18.562-5.914-28.418-.009-.748.061-1.516-.65-2.035-2.555-1.863-1.2-4.055-.3-5.991a20.349,20.349,0,0,1,3.533-5.638,2.625,2.625,0,0,0,.179-3.928c-4.259-4.438-2.293-8.573.174-12.846,4.228-7.325,9.2-14.228,12.555-22.053q.114-.523.227-1.044c4.616.32,5.66-.39,6.147-4.436a10.16,10.16,0,0,1,2.645-6.024,63.871,63.871,0,0,0,4.329-5.654c.7-.944,1.162-1.941.228-3.034-1.852-2.165-1.35-4.68-1.052-7.164.83-6.933,3.608-13.57,4.1-20.426a68.723,68.723,0,0,1,7.086-24.991c1.9-3.975,3.5-8.194,6.039-11.726,1.453-2.022,2.625-3.746,2.76-6.222.088-1.608.539-3.194.7-4.8.123-1.232.822-2.24,1.844-1.554,3.36,2.257,4.238-.676,5.585-2.468,2.92-3.884,5.47-8.093,11.38-7.723,1.852.116,2.009-1.713,1.58-3.091a20.142,20.142,0,0,0-1.858-3.645c-.785-1.412-2.039-2.9-.753-4.449,1.318-1.59,2.208-3.785,5.332-2.985,2.892.741,7.466-2.465,7.382-4.61a81.03,81.03,0,0,0-.793-11.209c-2.794-15.479-6.5-30.789-8.54-46.41-.173-1.321,0-2.742-2.231-2.6-1.719.11-1.307-1.078-.458-1.885,1.029-.978,2.446-2.164,1.19-3.42-3.323-3.325-.691-9.414-5.724-11.9-.457-.227-.445-1.624-.465-2.482-.123-5.489-.105-5.5-5.687-6.283-.864-.121-1.762-.044-2.615-.212-3.242-.636-3.806-2.805-3.431-6.014.482-4.128,1.122-7.784,4.789-10.283.341-.233.409-.892.565-1.366a6.861,6.861,0,0,1,3.36-3.869c1.4-.792,3.05-1.383,2.824-3.5-.219-2.03-1.76-2.386-3.362-2.949-2.736-.963-3.545-3.651-1.889-5.6,4.406-5.193,4.623-7.115,1.44-14.34a60,60,0,0,0-3.781,5.2c-1.813,3.128-4.122,3.172-6.4.948-5.533-5.4-11.341-10.589-14.746-17.792-2.342-4.956-5.458-9.532-7.111-14.84-.351-1.127-.77-3.435-2.964-1.5-2.615,2.3-4.456,1.357-5.977-1.343a16.647,16.647,0,0,1-2.279-5.447c-.653-3.778-3.027-5.487-6.627-5.306-2.73.137-3.942-1.1-3.858-3.772.036-1.155.006-2.313.006-3.535-3.169,1.11-4.809,3.375-6.725,5.257-1.534,1.507-3.28,1.084-4.908.782S406.03,39.4,406.43,37.84q.157-.465.314-.93l-.891.1c-2.769.556-4.382-2.348-6.875-2.379-6.79-.086-13.5-2.3-20.346-.746-1.961.444-2.9-1-4.027-2.154-.825-.847-1.577-2.187-3.074-1.055-1.514,1.146-3.21.977-4.976,1.048-3.532.144-7.053.855-9.5,3.687-1.515,1.754-2.966,2.062-5.208,1.669-5.88-1.032-11.22-.188-14.522,5.668a1.7,1.7,0,0,1-1.216.78c-2.6-.017-5.338-.721-6.3,3.049-.179.705-2.3.609-3.5.086A21.038,21.038,0,0,1,323,44.981c-1.511-1.01-2.589-1.343-3.907.493a14.973,14.973,0,0,1-10.746,6.479c-.763.088-1.358.149-1.616,1.12-1.295,4.872-2.676,9.721-4.028,14.578l-3.52-.873a.387.387,0,0,1-.3-.217l-.556-.452-.2-.17-.664-.552-.121-.1A1.314,1.314,0,0,0,295.173,65a1.422,1.422,0,0,1-.488.315c-1.31.307-.981,2.843-2.99,2.2l-.231-.225c-.677-1.922-.651-4.144-2.4-5.609l-.015-.014c-.767-1.693-1.766-1.736-2.956-.416l-.954.288-5.787.12-.04-.041c.06-2-1.388-4-.031-6.013l.01-.013c1.554-.749,1.879-1.9.839-3.236-1.242-1.6-3.061-1.462-4.7-.969-1.382.417-1.975,1.45-.662,2.733l.041.074q0,1.069,0,2.137l-.048.064-.655.752-.029.033-2.638.2a.37.37,0,0,1-.317-.313l-.38-.655a1.861,1.861,0,0,1-.4-.508.363.363,0,0,0-.3-.3,1.1,1.1,0,0,1-.415-.387c-1.051-1.566-1.847-1.616-2.3.388l-.053.042c-1.3.283-2.805-1.485-3.833-.046-2.735,3.829-4.586,1.807-6.479-.733l-.1-.157A1.252,1.252,0,0,0,256.1,53.4l-.049-.056A3.106,3.106,0,0,0,252.51,50.4c-2.139.053-3.336-.043-2.875-3.04.224-1.459,1.643-3.823-.518-5.351a1.029,1.029,0,0,1-.472-.39c-.582-1.414-1.873-.894-2.91-1.065l-.1-.136q-.256-.641-.51-1.282a.835.835,0,0,1-.366-.276,9.526,9.526,0,0,0-5.19-1.23l-.048-.033c-.4-.8-1.177-.759-1.892-.861a.428.428,0,0,1-.325-.215l-.631-.433L236.547,36c-.223-.416-.481-.463-.778-.071l-.234.123a.543.543,0,0,0-.491.33,1.168,1.168,0,0,1-.441.375l-2.923-.053-.285-.191c-.526-1.939.306-3.665.908-5.405.381-1.105.99-2.156-.766-2.573l-.164-.166a1.218,1.218,0,0,0-.777-1.259l-.823-.422-.68-.33-.06-.055a2.11,2.11,0,0,1,1.288-2.286c1.437-.645,1.359-1.8.309-2.886l-.088-.107c.17-1.591-.605-2.267-2.139-2.211l-.09-.089c-.493-1.905-3.122-3.122-1.714-5.739.22-.409-.859-.279-1.268.216l-1.01.227c-1.76-2.552-4.575-4.185-5.229-7.786-.346-1.907-.538-5.795-2.415-5.716-3.49.146-2.511-1.7-2.6-3.374l.191-.243c.617-.55.561-1.042-.131-1.477l-.116-.123-.621-.65-.087-.115c0-.779.1-1.587-.681-2.113l-.134-.148c-1.1-1.071-2.1-.975-3.008.243l-.716.635L205.807-8.92l-.054-.056c-.111-1.329-.584-1.879-2.138-1.672a22.928,22.928,0,0,1-6.608.119,3.93,3.93,0,0,0-4.735,2.365l-.035.022c-3-1.864-6.02.69-9.025-.047l-.726-.679c-2.689-3.005-4.611-6.67-7.884-9.173l-.371-.681-.418-.713a.818.818,0,0,1-.3-.393.507.507,0,0,0-.39-.394.553.553,0,0,1-.289-.343c-.17-.972-.807-1.214-1.686-1.081-3.222-2.757-7.013-2.439-10.9-2.292-3.007.114-5.883-.78-8.864,1.192a7.538,7.538,0,0,1-6.094,1.066c-2.744-.877-4.575.662-5.947,2.5-.842,1.128-1.584,2.555-2.84,2.764-5.32.885-4.749,5.553-5.675,8.967-.536,1.975-1.21,3.314-2.985,2.721-3.213-1.075-4.18.564-5.133,3.052C121,2.8,119.18,3.829,114.527,3.448c-.724-.059-1.465.129-2.2.131-6,.023-11.342-1.575-15.443-6.245q-.705-1.73-1.411-3.46c-2.218-3.327.5-3.325,2.547-3.779.3.1.719.369.882.261.5-.339.3-.776-.069-1.14-1.218-2.148,2.269-3.022,1.407-4.949-.919-2.053-.978-3.245,1.116-5.015,1.8-1.518-2.935-2.13-2.01-4.546a4.556,4.556,0,0,1,1.446-2.086c.523-.415.9-1.461.487-1.5-2.32-.2-3.652-2.238-5.606-2.791-.932-.264-2.283.509-2.653-.978a2.471,2.471,0,0,1,1.442-2.795c2.388-1.215,2.912-2.913,1.58-5.21-.783-1.349-.3-2.112,1.118-2.434,1.889-.429,2.242-1.28.406-2.22-3.307-1.695-3.161-4.265-1.9-7.043.908-2,.017-1.989-1.578-1.962-3.01.051-5.449,1.521-8.037,2.736-1.379.648-2.933,2.257-4.436,1.024-1.9-1.558-4.162-1.878-5.223-.2-1.214,1.917-1.646,4.75.562,6.787,1.856,1.71,1.541,3.107-.188,4.68C73-35.862,63.881-35.649,60.389-39.358c-2.7-2.863-7.786-2.936-8.095-8.825-1.691,2.217-.219,4.43-2.562,5-1.192.289-.764,1.5-.856,2.5-.279,3.04,1.236,6.076-.611,9.222a3.616,3.616,0,0,0,1.559,5.323c4.05,1.868,4.369,3.593,1.629,7.156-1.266,1.647-3.116,3.037-2.489,5.537l-.862.016c-2.5.109-4.756,0-6.84-1.982-1.484-1.412-3.7-1.4-5.992-1.086-3.307.451-6.1,3.019-9.574,2.274a16.352,16.352,0,0,0-5.925-.025c-4.091.6-6.563,5.37-4.551,8.866,3.552,6.176,3.1,7.912-3.051,11.741C8.322,8.749,6.283,8.641,4.691,4.673,3.268,1.128.513.18-2.349-.5c-2.712-.644-5.22-1.865-8.092-2.22-2.531-.313-5.5-.123-7.507-1.134-2.067-1.039-3.1-.875-5.082-.3-1.762.515-4.379.372-5.906-1.111-1.494-1.451.475-2.935.878-4.411.742-2.712,1.21-5.119-2.621-5.98-3.544-.8-4.841-3.619-5.266-6.95-.194-1.521-.395-3.069-2.293-3.418-2.073-.381-4.1-.93-5.962.883-3.846,3.738-9.392,2.865-11.782-2.173a10.05,10.05,0,0,1-7.986,6.243c-1.793.347-3.088,1.3-1.833,3.878.724,1.491,1.151,4.45-2.38,4.458-.9,1.5-4.479,2.967-.069,4.551l-.011-.014.012.792c-3.876,1.966-5.356,6.272-8.725,8.884-2.046,1.586-4.582,1.311-6.293,2.889-2.151,1.983-4.309,3.427-7.373,2.3-1.455-.535-1.725.719-2.024,1.576-1.983,5.662-5.485,9.5-11.506,11.237-3.278.945-3.993,4.242-2.558,7.149.764,1.546,1.044,3.253-1.5,3.581-1.073.139-2.169,1.524-1.735,1.648,3.119.891,1.942,3.99,3.17,5.517,2.579,3.2,2.166,6.233,1.095,9.673-.7,2.235-.957,4.605-1.434,6.911-.8,3.878.43,8.048-1.874,11.753-.574.924-.471,2.339-.512,3.6-.208,6.333,2.978,11.183,6.53,15.888.864,1.145,1.633,2.638,3.284,2.876,5.942.858,11.7.544,16.8-3.108a4.945,4.945,0,0,1,4.631-.354c1.7.66.384,2.387.056,3.622-1.128,4.252-4.005,8.006-3.436,12.775.113.95-.814,2.039-1.3,3.043-.765,1.569-1.691,3.074-2.32,4.694a3.794,3.794,0,0,0,1.262,4.376c1.23,1.127,2.33.9,3.653.022,1.521-1.007,3.483-1.684,4.44.514a14.81,14.81,0,0,0,7.554,7.99c1.283.6,2.815,1.228,3.142,2.971l-.111.963c-2.436.547-4.8,1.018-7.333.083-2.905-1.072-12.215,4.814-12.155,7.909.052,2.7-1.077,4.785-1.969,7.077a33.728,33.728,0,0,0-2.6,10.513c-.206,4.131,2.855,6.473,6.769,5.207,2.1-.678,4.126-1.054,6.159.1a2.839,2.839,0,0,0,2.515.246c3.216-1.187,4.5.416,5.908,3.229,4.122,8.264,5.614,17.576,10.441,25.536.929,1.531.577,3.087-.6,4.508-1.5,1.816-1.017,3.7.076,5.522,3.507,5.847,3.511,5.844-3.3,6.178-6.412.314-6.52.223-9.209-5.479a49.533,49.533,0,0,0-2.848-5.237,1.6,1.6,0,0,0-1.934-.791c-.746.318-.5,1.049-.417,1.628.647,4.365-2.285,4.58-5.359,4.665-2.161.06-6.26-2.906-5.986-4.8.573-3.943-1.9-3.684-4.05-2.935a9.331,9.331,0,0,1-5.085.16c-3.545-.655-7.144-2.549-10.487.621-.673.638-1.458-.364-2.072-.228-2.254.5-4.241-1.761-6.236-.885-2.71,1.189-4.743,6.239-3.945,9.26,1.51,5.718.722,11.246-1.01,17.053a4.967,4.967,0,0,1,5.094,2.3,3.768,3.768,0,0,0,3.6,1.567,7.744,7.744,0,0,1,7.061,2.624c.732.861,2.274,1.7,2.7.169,1.044-3.787,3.581-3.083,6.317-2.856,2.2.182,2.847,1.6,2.108,2.983-2.4,4.486-2.533,8.3,2.08,11.4.282.19.324.782.607.919,2.612,1.262,2.16,5.495,5.684,5.84l0,.779a7.246,7.246,0,0,0-1.855-.2c-3,.451-6.071,1.964-8.423-1.651-.669-1.03-4.535.5-4.608,1.657a23.545,23.545,0,0,1-4.958,13c-1.716,2.245-1.866,3.894.62,5.582,1.669,1.132,3.9,2.98,2.534,4.789-2.4,3.186-.541,8.94-6.2,10.1-.992.2-1.118,1.541-1.138,2.581a4.081,4.081,0,0,1-1.223,3.41,5.644,5.644,0,0,0-2.015,4.99c.08,2.413-1.268,4.256-2.588,6.083-1.226,1.7-3.538,2.232-4.566,1.035-2.088-2.432-5.4-2.793-7.3-4.765-2.046-2.118-2.825-1.058-4.421,0-2.343,1.552-4.731,2.244-5.628-1.615-.2-.84-.539-1.509-1.467-1.2a10.666,10.666,0,0,0-5.444,4.918c-.93,1.516.744,2.937,1.956,3.933,1.951,1.6,3.276,3.559,3.194,6.076-.136,4.123,1.945,7.894,1.636,12.055-.15,2.021,1.034,3.757,2.133,5.486,1.066,1.678,3.025,3.23,1.744,5.706-.332.642.039,1.141.549,1.605,2,1.819,3.632,4.262,6.295,5.035,2.543.737,2.121,2.576,1.369,3.71-2.965,4.472-2.263,9.192-.463,13.464,1.337,3.176.06,4.573-2.055,5.652-1.91.974-2.38,2.125-1.518,3.786,1.729,3.327-3.11,7.02.645,10.194.095.08-.252.651-.359,1-1.624,5.325-3.828,10.288-8.5,13.728-.294.216-.709.5-.749.79-.611,4.46-4.693,5.95-7.6,7.988-3.388,2.38-5.309,6.182-9.031,8.264-.8.447-1.5,3.443-3.668,4.654,5.918.842,5.912.846,8.482,4.5.771,1.1,1.484,2.853,2.884,2.509,1.2-.3,1.7-1.994,1.771-3.424.125-2.71,1.671-2.5,3.267-1.413,1.951,1.325,3.728,2.9,5.581,4.374l-.041,1.1.058-.035a1.624,1.624,0,0,0-1.492.9c-.361,2.19,1.955,4.147.635,6.359-.4.673-1,1.108-.293,1.855.685.719,1.31.181,2.007-.066a9.081,9.081,0,0,1,7.942.387c2.8,1.446,4.747,4.243,8.163,4.778,1.458.228,3.415-.077,4.488,1.45,2.1,2.992,4.991,2.142,7.382,1.084,2.895-1.281,6.012-1.5,8.913-2.615,1.618-.625,3.363-.708,4.687,1.115a3.462,3.462,0,0,0,2.582,1.305c4.168-.363,6.489,2.154,9.538,4.5,4.442,3.422,6.364,6.23,3.487,11.595-.623,1.16-2.627,5.289,2.225,5.359,2.219.032,6.222,4.91,5.22,6.764-1.557,2.877-.86,4.53,1.145,6.91,1.6,1.9,3.794,2.747,5.377,4.5,1.618,1.789,3.413,3.062,3.664-.995a1.932,1.932,0,0,1,1.2-1.773c.626-.233,1.092.117,1.091.614-.006,4.467,4.245,4.195,6.409,4.5,3.041.427,4.092,1.641,4.563,4.128.272,1.437,1.056,2.165,2.3,1.419,2.076-1.249,2.52.55,3.446,1.534.662.705.938,2.1,2.049,1.967,1.21-.141,1.127-1.455,1.235-2.431.149-1.354.527-2.712,2.22-2.193,1.336.409,2.929,1.177,2.438,3.067-.533,2.056.145,4.424-.33,6.023-1.558,5.236,1.608,9.07,2.846,13.451.462,1.634,1.756,3.151,3.441,3.029,2.169-.156,4.135.87,6.249.574l.039.87a7.275,7.275,0,0,1-1.806.231c-1.858-.228-4.59-2.183-4.747,1.424-.1,2.229-3.7,3.135-1.806,5.566,1.5,1.925.617,3.366-.58,4.718-1.648,1.861-3.187,3.552-1.877,6.352.5,1.06-.446,1.8-1.618,1.93-.306-.361-.678-.649-1.054-.181-.1.127.157.547.25.832.384.916.744,1.843,1.154,2.747,1.178,2.6,2.715,3.8,4.812,1.371,2.137,4.5.219,8.389-2.126,12.148-.85,1.363-1.958,2.543-2.458-.249-.181-1.007-.542-1.783-1.65-1.424a2.911,2.911,0,0,0-2.385,2.437c-.544,3.334-.385,6.728-.867,10.015-.484,3.306-.713,7.174-5.772,7.659-1.645.158-4.033,1.835-2.556,4.72.387.757-.042,1.851.159,2.5.885,2.859-1.073,5.952,1.122,8.783,1.021,1.317,1.771,3.628-1.876,3.68-.721.01-4.8.122-3.9,2.611,1.37,3.814-2.091,8.809,2.9,11.628.2.113.176.7.188,1.065.221,6.919.838,13.8.348,20.772-.311,4.429,1.2,8.942-.144,13.465-.287.966.932,1.663,1.681,2.316l-.013,1.5c-2.424,2.313-2.044,4.069,1.008,5.39.514.223.879.793,1.313,1.2l-1.009.861-2.014-.053-1.934-1.62c-.37-.648-1.192-1.442-1.039-1.922,1.229-3.841-1.686-7.714.2-11.524.966-1.952-.84-3.635-.644-5.747.231-2.489-1.7-5.169.892-7.469a1.113,1.113,0,0,0-.143-1.051c-3.2-2.645-1.152-5.624-.7-8.57.48-3.106.6-6.206-2.192-8.608-1.456-1.25-1.6-3.079-1.15-4.865a9.152,9.152,0,0,0-.223-5.171c-1.069-3.215.176-5.057,3.149-6.034,1.8-.592,3.236-.943,1.2-3.216-1.709-1.905.8-4.069.232-6.429-1.364-5.711.069-10.134,6.61-11.89,1.7-.456,1.919-3.01,1.9-4.934-.039-3.29-.225-6.587-.08-9.869.086-1.928.789-3.741,3.283-3.8a3.942,3.942,0,0,0,1.106-.179c5.6-1.826,5.624-1.925,1.763-6.2-3.448-3.814-3.736-8.412-.246-13.873a16.5,16.5,0,0,0,2.222-7.3c.031-.246-.1-.557.014-.742,2.905-4.919-1.287-8.339-2.61-12.353-1.076-3.264-2.655-6.438-1.67-10.02.191-.692.083-1.668-.324-1.6-3.393.583-4.917-3.632-8.246-3.095a3.093,3.093,0,0,1-3.358-1.826c-1.479-2.553-3.906-4.113-6.372-5.535-1.012-.584-2.317-1.519-3.452-.676-2.752,2.046-4.637.217-6.706-1.163a63.916,63.916,0,0,1-8.354-7.276c-1.527-1.453-1.287-3.017-.821-4.82.909-3.513.155-4.418-3.492-4.452-1.712-.017-2.347-.978-2.754-2.48a16.644,16.644,0,0,1-.051-7.807c.455-2.178,1.632-5.042.2-6.277-2.638-2.273-4.974-5.483-8.885-5.844-2.552-.234-4.907-.746-6.782-2.6-1.025-1.014-2.044-.387-3.125-.14-4.116.939-7.949,2.962-12.27,3.133-1.131.044-2.5.487-3.151-.553-1.216-1.929-3.171-2.315-5.034-2.867-3.65-1.081-7.177-2.163-9.983-5.081-1.456-1.515-3.613-.471-5.211.4-2.441,1.328-3.665-.256-5.127-1.651-1.51-1.439-1.975-2.855-.306-4.475.466-.454.879-1.047.42-1.642a4.134,4.134,0,0,1-.468-4.828c.667-1.416-1.222-1.816-2.138-2.877-.33.667-.586,1.169-.831,1.678-2.4,5-4.346,5.235-7.587.5-1.7-2.487-3.4-4.1-6.621-3.856a3.182,3.182,0,0,1-3.248-2.6c-.41-1.5.548-2.418,1.419-3.573,1.785-2.367,4.756-3.88,5.213-7.272.155-1.154,1.361-1.563,2.519-1.927a17.7,17.7,0,0,0,11.008-8.986,12.759,12.759,0,0,1,3.226-3.585c2.566-2.178,3.5-5.372,5.266-8.043a1.869,1.869,0,0,0,.29-1.442c-1.682-4.328,1.08-8.645.017-12.912-.529-2.124.05-3.522,1.992-4.158,2.083-.682,2.352-1.982,1.761-3.765a20.881,20.881,0,0,1,.031-13.875,1.4,1.4,0,0,0-1.021-1.991c-2.528-.9-3.475-3.477-5.483-4.9-.386-.274-.912-.78-.885-1.144.442-6.028-4.849-10.4-4.507-16.61.178-3.235-.018-7.5-1.722-9.942-2.686-3.852-3.906-9.044-8.717-11.34a22.9,22.9,0,0,1-4.949-3.354c-1.61-1.374-2.915-2.5-1.794-4.93.455-.985.52-2.956-1.165-2.979-2.136-.029-4.7-1.889-6.448.749-3.281,4.958-5.819,10.116-3.839,16.364.606,1.913-.639,3.31-1.822,4.655-2.268,2.578-5.1,4.638-6.191,8.233-.644,2.121-3.779,1.945-4.9,4.248-.75,1.54-1.275,2.648-.84,4.436,1.575,6.48-1.663,10.625-7.983,9.244-4.514-.986-7.859,1.826-11.88,1.784v-3c2.973,1.016,4.7-1.128,6.4-2.8,1.391-1.365,2.371-1.89,3.444.041,1.4,2.517,3.636,1.873,5.586,1.34,2.013-.55,2.546-2.513,2.082-4.281-1.489-5.669,1.642-8.667,5.238-12.537,2.591-2.789,5.283-5.879,7.7-9.017a3.071,3.071,0,0,0,.487-2.829c-1.385-5.359-.688-10.234,3.014-14.593,1.688-1.986,1.054-4.83,2.084-7.108l-.02-.032c-.008.592-.269,1.4.02,1.741,1.116,1.328,8.037,1.087,9.776-.231l-.036.036a5.87,5.87,0,0,1,1.884,5.779c-.557,3.206,1.064,4.894,3.544,6.244a9.855,9.855,0,0,1,2.538,1.564c2.393,2.534,4.129,1.445,5.9-.767a6.306,6.306,0,0,1,4.7-2.737c2.32-.088,2.714,1.635,3.3,3.362.45,1.334,1.473.571,2.088.059,2.629-2.193,5.068-3.851,7.463.4.4.7,2.041.706,3.11,1.033l1.373.957c1.226.659,2.082,2.737,3.68,1.771a4.85,4.85,0,0,0,2.336-4.476c-.556-4.618,4.023-7.367,4-11.728a1.166,1.166,0,0,1,.7-.834c3.788-1.072,3.64-4.745,5.137-7.391,1.36-2.4.5-3.55-1.241-4.987-3.273-2.7-3.286-4.423-.837-7.936,2.56-3.67,4.854-7.448,4.195-12.326-.249-1.844,1.291-2.9,3.008-3.279,1.568-.348,3.181-.487,4.767-.758.717-.122,1.889.874,2.054-.653a2.14,2.14,0,0,0-1.343-2.1c-3.829-1.494-3.952-4.3-2.971-7.626a12.925,12.925,0,0,0,.031-1.867c.121-.925.091-1.608-.917-2.152-1.244-.672-1.554.257-1.984.922-1.921,2.974-4.15,2.389-6.194.351a5.924,5.924,0,0,0-5-1.951,6.293,6.293,0,0,1-5.672-2.285,2.848,2.848,0,0,0-2.466-1.244c-3.171.005-4.234-2.044-2.937-4.97,1.831-4.131,1.536-8.478,1.11-12.8-.2-1.981-.8-3.921-1-5.9-.176-1.8.088-3.537,2.232-4.212.466-.146,1.15-.351,1.28-.7,1.672-4.473,5.141-2.66,8.078-2.243,1.716.244,3.1.872,4.7-.764.76-.776,3.05-.848,4.2-.3,3.919,1.856,7.836,1.32,11.838.777,2.845-.386,5.048.659,5.027,3.744-.021,3.043,2.468,3.306,4.133,4.358,1.03.65,2.227-.041,2.3-1.537.047-.994-.21-2.014-.084-2.991.266-2.073.923-3.106,3.469-2.028,3.2,1.352,4.133,4.127,5.422,6.793,2.652,5.489,4.445,6.245,10.577,4.306-2.186-3.312-4.229-6.665-1.051-10.481a1.785,1.785,0,0,0,.077-2.131c-5.043-7.6-5.908-16.907-10.165-24.851-1.1-2.054-1.8-3.51-4.361-2.4a3.172,3.172,0,0,1-2.886-.376c-1.672-.972-3.263-.744-5.023-.14a7.025,7.025,0,0,1-9.511-7.406,35.75,35.75,0,0,1,2.326-9.821c.984-2.66,2.6-5.131,2.187-8.194a2.7,2.7,0,0,1,1.357-2.555c3.736-2.142,6.094-6.265,10.417-7.451,2.624-.721,2.031-1.322.746-3.094-1.18-1.626-3.333-2.188-4.008-4.2-.286-.852-1.012-.7-1.494-.294-2.673,2.261-4.55.172-6.057-1.431a5.556,5.556,0,0,1-.773-6.894c1.844-3.479,4.1-6.869,3.27-11.25-.188-.993.785-2.32,1.458-3.337a12.487,12.487,0,0,0,1.806-5.638c-6.606,3.224-13.056,4.542-19.888,3.41a2.979,2.979,0,0,1-2-.843c-5.31-6.164-10.414-12.426-9.673-21.324.328-3.948,1.912-7.651,2.139-11.653a55.94,55.94,0,0,1,2.124-13.753c.252-.8.881-3.28-1.851-2.9a1.408,1.408,0,0,1-.963-.5c-1.37-1.457.728-4.185-2.325-5.44-.981-.4-1.865-3.959,1.079-5.567.507-.276.182-2.38.888-3.809,2.055-4.166,4.735-7.169,9.341-8.45,2.5-.7,4.041-2.584,5.156-5.056,1.316-2.92,2.522-5.881,4.69-8.461,3.529-4.2-.071-13.348-5.427-14.485a18.219,18.219,0,0,0-4.059-.652c-4.024.083-5.942-2.425-6.842-5.742-.593-2.187-1.168-1.923-2.681-.9-4.5,3.055-9.754,1.144-10.807-4.207-.4-2.034-2.073-2.881-2.624-4.758-1.541-5.247-1.454-10.842-3.783-15.929-1.063-2.323.758-5.006-.35-7.713-.8-1.945.188-4.466-2.473-5.878-.992-.526-.345-2.2.314-3.077,1.523-2.028,1.454-5.1,4.354-6.278.981-.4.551-1.788.457-2.773q-.672-7.041-1.338-14.083Zm53.589,206.912c-.363-.276-.771-.511-1.13-.087-.074.088.24.5.374.767.546.312,1.288.631,1.654.129C-69.823,123.348-70.561,123.072-70.989,122.909ZM-90.929,237.116a2.178,2.178,0,0,0-.74-.438c-.113-.022-.5.505-.44.671a1.008,1.008,0,0,0,.7.567C-91.1,237.948-90.685,237.776-90.929,237.116Z" transform="translate(201.906 84.003)" fill="#717272"/>
</svg>
