<svg xmlns="http://www.w3.org/2000/svg" xmlns:xlink="http://www.w3.org/1999/xlink" width="84" height="84.004" viewBox="0 0 84 84.004">
  <defs>
    <linearGradient id="linear-gradient" x1="0.5" x2="0.5" y2="1" gradientUnits="objectBoundingBox">
      <stop offset="0" stop-color="#768801"/>
      <stop offset="1" stop-color="#ffd942"/>
    </linearGradient>
  </defs>
  <g id="Groupe_3232" data-name="Groupe 3232" transform="translate(-944.124 -1499.665)">
    <path id="Tracé_6076" data-name="Tracé 6076" d="M749.274,70.691a36.867,36.867,0,0,1-8.881,4.289,35.2,35.2,0,0,1-8.334,1.493c-.045-.249-.231-.254-.433-.271a29.64,29.64,0,0,1-10.38-2.963,33.222,33.222,0,0,1-16.4-17.456,33.173,33.173,0,0,1-2.342-12.677,32.956,32.956,0,0,1,26.732-32.072,7.713,7.713,0,0,0,2.831-.612h1.148a11.433,11.433,0,0,0,2.3.369,33.048,33.048,0,0,1,16.562,7.663,21.293,21.293,0,0,0-1.99,4.009c-.346,1-.487,2.048-.776,3.059A25.844,25.844,0,0,0,733.7,17.675a23.6,23.6,0,0,0-6.118-.048,24.838,24.838,0,0,0-14.691,6.7,25.357,25.357,0,0,0-8.216,22.062,24.589,24.589,0,0,0,6.989,14.981,25.5,25.5,0,0,0,22.029,7.891c.481-.086.965-.161,1.444-.26C744.878,67,751.489,61.3,755,52.035A24.362,24.362,0,0,0,756.376,41.1c.7.376,1.383.767,2.087,1.125a18.811,18.811,0,0,0,5.068,1.5,34.266,34.266,0,0,1-1.709,10.192,37.137,37.137,0,0,1-4.116,8.331,46.57,46.57,0,0,1-4.99,5.69Z" transform="translate(246.682 1489.243)" fill="#768801"/>
    <path id="Tracé_6077" data-name="Tracé 6077" d="M714.036,10.422a7.713,7.713,0,0,1-2.831.612,32.785,32.785,0,0,0-26.732,32.072,33.172,33.172,0,0,0,2.342,12.677,33.222,33.222,0,0,0,16.4,17.456,29.639,29.639,0,0,0,10.38,2.963c.2.017.388.022.433.271a32.511,32.511,0,0,1-24-8.773,31.569,31.569,0,0,1-9.986-17.9A32.26,32.26,0,0,1,687.4,21.938a32.2,32.2,0,0,1,17.992-10.777,24.911,24.911,0,0,1,3.626-.576c.158-.012.335.022.427-.164Z" transform="translate(264.716 1489.243)" fill="#ffd942"/>
    <path id="Tracé_6078" data-name="Tracé 6078" d="M936.531,246.838a202.033,202.033,0,0,1,23.594,19.3.474.474,0,0,0,.141.064v2.132a6.466,6.466,0,0,0-.591,1.564,17.459,17.459,0,0,1-5.434,6.71c-.664-.755-1.309-1.528-2-2.26-1.719-1.828-3.541-3.553-5.258-5.386-2.328-2.486-4.734-4.9-7.044-7.406-2.013-2.184-4.124-4.279-6.1-6.491a26.257,26.257,0,0,1-2.3-2.538A46.57,46.57,0,0,0,936.531,246.838Z" transform="translate(67.858 1304.656)" fill="#768801"/>
    <path id="Tracé_6079" data-name="Tracé 6079" d="M919.281,272.792a26.276,26.276,0,0,0,2.3,2.538c1.98,2.212,4.09,4.307,6.1,6.491,2.31,2.506,4.716,4.92,7.044,7.406,1.717,1.833,3.539,3.558,5.258,5.386.688.732,1.333,1.505,2,2.26a9.833,9.833,0,0,1-5.934,2.4,1.75,1.75,0,0,1-1.411-.633c-4.411-4.633-8.529-9.514-12.464-14.554q-3.274-4.194-6.333-8.548Z" transform="translate(80.118 1284.392)" fill="#768801"/>
    <path id="Tracé_6080" data-name="Tracé 6080" d="M947.5,27.761a16.077,16.077,0,0,0-13.4-11.988c-.3-.038-.59-.082-.885-.123a3.556,3.556,0,0,1-1.128.41c-.112.024-.224.046-.337.067.113-.021.225-.043.337-.067a3.551,3.551,0,0,0,1.128-.41,16.474,16.474,0,0,0-5.749.557,16.661,16.661,0,0,0-8.838,6.292,21.294,21.294,0,0,0-1.99,4.009c-.346,1-.487,2.048-.777,3.059-.013.682-.022,1.363-.038,2.045a15.508,15.508,0,0,0,2.482,8.74,18.238,18.238,0,0,0,4.62,4.794c.7.376,1.383.767,2.087,1.125a18.812,18.812,0,0,0,5.068,1.5l3.135-.036c.295-.04.589-.082.884-.119a16.09,16.09,0,0,0,13.413-12.01,7.825,7.825,0,0,1,.478-1.949V30.051C947.827,29.288,947.682,28.52,947.5,27.761Zm-6.546-1.469q-3.083,6.244-6.174,12.484c-.327.661-.659,1.319-.985,1.98a1.791,1.791,0,0,1-1.62,1.075c-1.2.043-2.4.045-3.607.061a1.546,1.546,0,0,1-1.4-.841c-1.656-2.764-3.319-5.523-4.953-8.3a1.651,1.651,0,0,1,.661-2.448c.7-.428,1.4-.843,2.106-1.265a1.787,1.787,0,0,1,2.825.681c.779,1.279,1.538,2.571,2.381,3.984l5-10.036c.8-1.611,1.453-1.832,3.058-1.041.588.29,1.177.577,1.763.871A1.8,1.8,0,0,1,940.95,26.293Z" transform="translate(80.133 1485.197)" fill="#004156"/>
    <path id="Tracé_6081" data-name="Tracé 6081" d="M951.874,57.134c1.712-3.438,3.354-6.738,5-10.036.8-1.611,1.453-1.832,3.058-1.041.588.29,1.177.577,1.763.871a1.794,1.794,0,0,1,.952,2.8q-3.083,6.244-6.174,12.484c-.327.661-.659,1.319-.985,1.98a1.791,1.791,0,0,1-1.62,1.075c-1.2.043-2.4.045-3.606.061a1.546,1.546,0,0,1-1.4-.841c-1.656-2.764-3.319-5.523-4.953-8.3a1.651,1.651,0,0,1,.661-2.448c.7-.428,1.4-.843,2.106-1.265a1.787,1.787,0,0,1,2.824.681C950.271,54.43,951.03,55.721,951.874,57.134Z" transform="translate(58.439 1461.766)" fill="#f7f3f3"/>
    <path id="Tracé_6082" data-name="Tracé 6082" d="M816.662,138.4a11.744,11.744,0,0,1-3.071,5.39,10.6,10.6,0,0,1-7.372,3.01c-.735.01-1.47-.015-2.2-.024-.069-.041-.134-.11-.207-.12a10.281,10.281,0,0,1-7.484-4.681,11.239,11.239,0,0,1-1.788-6.157,4.929,4.929,0,0,1,.16-2.474c.865.316,1.368.151,1.727-.638a3.285,3.285,0,0,0,.037-2.828c-.436-.955-1.007-1.129-1.934-.595q-.005-4.755-.008-9.511c0-.237-.071-.5.157-.688a9.366,9.366,0,0,1,2.827,1.9c3.094,2.459,6.038,2.518,9.172.153.674-.509,1.327-1.049,2.019-1.533a4.586,4.586,0,0,1,4.8-.408,9.64,9.64,0,0,1,3.309,2.854q.01,5.311.021,10.623c.047.154.159.32.132.46C816.618,134.873,817.021,136.657,816.662,138.4Zm-14.4,2.821a4.492,4.492,0,0,0,2.721-1.179,1.207,1.207,0,0,0,.191-1.681,1.115,1.115,0,0,0-1.705-.28,1.839,1.839,0,0,1-2.569-.036,1.072,1.072,0,0,0-1.593.226,1.113,1.113,0,0,0,0,1.615A4.232,4.232,0,0,0,802.259,141.219Zm8.181-9.978a2.834,2.834,0,0,0-.392-1.638,1.042,1.042,0,0,0-1.9-.1,3.252,3.252,0,0,0,.047,3.53,1.017,1.017,0,0,0,1.767-.013A2.778,2.778,0,0,0,810.439,131.24Z" transform="translate(174.89 1404.701)" fill="url(#linear-gradient)"/>
    <path id="Tracé_6083" data-name="Tracé 6083" d="M817.5,85.927a9.641,9.641,0,0,0-3.309-2.854,4.586,4.586,0,0,0-4.8.408c-.692.483-1.344,1.024-2.019,1.533-3.133,2.366-6.077,2.307-9.172-.153a9.366,9.366,0,0,0-2.827-1.9,1.029,1.029,0,0,1-.022-.11c.008-1.091.061-2.184.014-3.273a7.263,7.263,0,0,1,4.492-6.524c.366-.144.893-.068,1.092-.563,3.468.056,6.948-.223,10.4.14a7.08,7.08,0,0,1,6.162,6.819C817.558,81.608,817.509,83.768,817.5,85.927Z" transform="translate(174.19 1440.82)" fill="#768801"/>
    <path id="Tracé_6084" data-name="Tracé 6084" d="M753.822,119.092a1.015,1.015,0,0,0,.022.11c-.229.189-.157.451-.157.688q0,4.756.007,9.511a3.236,3.236,0,0,0,.171,4.061,4.931,4.931,0,0,0-.16,2.474,11.24,11.24,0,0,0,1.788,6.157,10.281,10.281,0,0,0,7.484,4.681c.073.01.138.078.207.119-2.533-.022-5.089.294-7.6-.145a10.33,10.33,0,0,1-8.45-7.493c-.161-.488-.323-.766-.9-.8a8.071,8.071,0,0,1-1.574-.394,4.682,4.682,0,0,1-2.49-4.492,3.367,3.367,0,0,1,.7-1.859,2.657,2.657,0,0,1,2-.521,2.9,2.9,0,0,1,1.793,1.337c0-.638,0-1.1,0-1.563q.022-4.332.044-8.665c.152-.189.3-.381.457-.566C748.914,119.666,750.932,118.282,753.822,119.092Z" transform="translate(215.72 1404.579)" fill="url(#linear-gradient)"/>
    <path id="Tracé_6085" data-name="Tracé 6085" d="M769.8,83.031c-2.89-.81-4.908.574-6.653,2.644-.156.185-.3.377-.457.566a47.953,47.953,0,0,1,.235-8.35,8.012,8.012,0,0,1,3.953-4.58,9.767,9.767,0,0,1,2.3-.6.183.183,0,0,0,.316-.028l5.9-.018c-.2.5-.726.419-1.092.563a7.263,7.263,0,0,0-4.492,6.524C769.857,80.846,769.8,81.939,769.8,83.031Z" transform="translate(199.746 1440.641)" fill="#768801"/>
    <path id="Tracé_6086" data-name="Tracé 6086" d="M895.746,182.307c.359-1.741-.044-3.525.293-5.268.027-.139-.085-.306-.132-.46a3.528,3.528,0,0,1,1.133-1.332,2.245,2.245,0,0,1,3.318,1.371C901.176,179.469,898.972,182.187,895.746,182.307Z" transform="translate(95.805 1360.792)" fill="url(#linear-gradient)"/>
    <path id="Tracé_6087" data-name="Tracé 6087" d="M792.83,72.75a.183.183,0,0,1-.316.028Z" transform="translate(176.406 1440.578)" fill="#264e6c"/>
    <path id="Tracé_6088" data-name="Tracé 6088" d="M818.289,209.16a4.232,4.232,0,0,1-2.953-1.333,1.113,1.113,0,0,1,0-1.615,1.072,1.072,0,0,1,1.593-.226,1.839,1.839,0,0,0,2.569.036,1.115,1.115,0,0,1,1.705.28,1.207,1.207,0,0,1-.19,1.681A4.492,4.492,0,0,1,818.289,209.16Z" transform="translate(158.859 1336.76)" fill="#fff"/>
    <path id="Tracé_6089" data-name="Tracé 6089" d="M792.7,169.951a3.236,3.236,0,0,1-.171-4.061c.927-.534,1.5-.36,1.934.595a3.285,3.285,0,0,1-.037,2.828C794.066,170.1,793.563,170.267,792.7,169.951Z" transform="translate(176.887 1368.091)" fill="#fff"/>
    <path id="Tracé_6090" data-name="Tracé 6090" d="M857.437,167.686a2.776,2.776,0,0,1-.475,1.777,1.017,1.017,0,0,1-1.767.013,3.252,3.252,0,0,1-.047-3.53,1.042,1.042,0,0,1,1.9.1A2.829,2.829,0,0,1,857.437,167.686Z" transform="translate(127.892 1368.254)" fill="#fff"/>
  </g>
</svg>
