<svg xmlns="http://www.w3.org/2000/svg" xmlns:xlink="http://www.w3.org/1999/xlink" width="69.133" height="79.55" viewBox="0 0 69.133 79.55">
  <defs>
    <linearGradient id="linear-gradient" x1="0.5" x2="0.5" y2="1" gradientUnits="objectBoundingBox">
      <stop offset="0" stop-color="#768801"/>
      <stop offset="1" stop-color="#ffd942"/>
    </linearGradient>
  </defs>
  <g id="Groupe_3238" data-name="Groupe 3238" transform="translate(-618.123 -283.45)">
    <g id="Groupe_2372" data-name="Groupe 2372" transform="translate(623.964 289.7)">
      <ellipse id="Ellipse_13" data-name="Ellipse 13" cx="15.856" cy="15.856" rx="15.856" ry="15.856" transform="translate(13.162)" fill="url(#linear-gradient)"/>
      <path id="Rectangle_27" data-name="Rectangle 27" d="M29.018,0h0A29.018,29.018,0,0,1,58.036,29.018v6.85a0,0,0,0,1,0,0H0a0,0,0,0,1,0,0v-6.85A29.018,29.018,0,0,1,29.018,0Z" transform="translate(0 37.431)" fill="url(#linear-gradient)"/>
    </g>
    <g id="Groupe_3167" data-name="Groupe 3167" transform="translate(618.123 283.45)">
      <path id="Tracé_4608" data-name="Tracé 4608" d="M3.529,68.129c.115-1.694.5-3.345.771-5.014.645-3.948,1.254-7.907,1.995-11.843a13.824,13.824,0,0,1,9.793-11.125c3.2-1.091,6.412-2.164,9.631-3.194.675-.217,1.085-.482.922-1.254-.108-.554.1-.747.693-.735,1.826.03,1.808,0,1.838,1.832a18.825,18.825,0,0,0,.838,3.9c.313,1.374.681,2.736,1.025,4.1l.139.06c.585-.7,1.193-1.416,1.8-2.133.97-1.163,1.953-2.32,2.9-3.5a1.009,1.009,0,0,1,.91-.422c1.055.036,2.242-.265,3.122.133.844.38,1.374,1.464,2.037,2.254,1.031,1.229,2.061,2.465,3.17,3.791.657-2.616,1.308-5.087,1.88-7.57a7.322,7.322,0,0,0,.024-1.923c-.018-.416.127-.56.53-.512a5.215,5.215,0,0,0,.615.006c1.284,0,1.314-.006,1.374,1.26.024.446.3.47.585.567q5.026,1.682,10.059,3.363a13.918,13.918,0,0,1,9.209,9.01,40.258,40.258,0,0,1,1.248,6.34c.681,3.942,1.326,7.9,1.977,11.843a6.526,6.526,0,0,1,.048.765ZM38.02,65.567q9.79,0,19.593.012c.567.006.747-.1.669-.711-.277-2.109-.512-4.231-.717-6.352-.048-.476-.187-.585-.639-.585q-18.831.018-37.649,0c-.446,0-.6.1-.645.579-.193,2.049-.428,4.086-.669,6.129-.115.934-.133.928.771.928H38.02m-8.184-15.1c-.1-.356-.169-.591-.229-.832q-1.229-4.918-2.459-9.848c-.048-.2-.036-.446-.253-.53-.476-.181-1.555.627-1.555,1.145,0,4.731.018,9.462-.012,14.193-.006.657.187.8.814.8q11.96-.036,23.914,0c.627,0,.814-.139.814-.8-.03-4.55-.018-9.1-.018-13.657,0-1.248-.006-1.223-1.181-1.6-.422-.133-.536,0-.615.374-.133.627-.307,1.248-.458,1.868-.735,2.929-1.465,5.852-2.218,8.883-.3-.35-.536-.609-.759-.88q-3.236-3.878-6.467-7.763a1.392,1.392,0,0,0-2.109,0q-1.709,2.043-3.405,4.092c-1.248,1.495-2.5,2.983-3.8,4.556m-13.391-.307c0-2.857-.006-4.864.006-6.871,0-.392-.03-.567-.506-.374a10.778,10.778,0,0,0-6.834,7.6C7.941,55.328,7.416,60.27,6.53,65.146c-.108.591.289.416.548.422,2.519.006,5.044-.012,7.564.018.542.006.7-.187.741-.687.494-5.189,1.416-10.348,1.061-14.741m43.3-.066c-.356,4.418.56,9.6,1.061,14.814.048.506.217.687.753.681,2.519-.03,5.038-.024,7.558-.006.464,0,.609-.054.518-.591-.723-4.2-1.41-8.407-2.1-12.614a11.587,11.587,0,0,0-7.075-9.384c-.524-.223-.747-.253-.729.458.042,1.929.012,3.857.012,6.642M22.809,48.035c0-2.284-.006-4.574.006-6.864.006-.434-.036-.609-.542-.41-.928.362-1.886.669-2.845.946-.38.108-.464.3-.464.657q.018,6.247,0,12.5c-.006.4.115.53.518.518.9-.03,1.8-.042,2.7,0,.5.024.651-.115.639-.633-.024-2.236-.012-4.472-.012-6.714m30.574-.072c0,2.26.018,4.526-.012,6.786-.006.518.145.657.645.633.9-.036,1.8-.03,2.7,0,.4.012.512-.127.512-.524q-.018-6.256,0-12.5c0-.362-.09-.542-.464-.651-.964-.283-1.917-.591-2.845-.946-.512-.2-.542-.012-.542.416.012,2.26.006,4.526.006,6.786" transform="translate(-3.529 10.871)" fill="#768801"/>
      <path id="Tracé_4609" data-name="Tracé 4609" d="M37.579,45.222a132.165,132.165,0,0,0-18.526,1.145A50.856,50.856,0,0,0,8.7,48.645a8.435,8.435,0,0,0-1.874.874c-.868.567-.88.874-.036,1.434a11.467,11.467,0,0,0,3.158,1.392c1.127.331,2.272.639,3.423.886.482.109.675.241.518.747-.193.6-.036,1.5-.5,1.778-.386.229-1.157-.157-1.748-.3a19.361,19.361,0,0,1-6.352-2.441,4.458,4.458,0,0,1-1.169-1.109,2.592,2.592,0,0,1,.319-3.556,10.4,10.4,0,0,1,4.207-2.32,49.844,49.844,0,0,1,9.83-2.14c.476-.066.615-.229.705-.687a19.057,19.057,0,0,1,33.87-8.389,19.212,19.212,0,0,1,3.694,8.444c.078.446.241.566.675.627a50.814,50.814,0,0,1,9.83,2.14,12.9,12.9,0,0,1,3.64,1.8c1.995,1.537,1.953,3.634-.115,5.1a17.725,17.725,0,0,1-5.725,2.356c-.741.2-1.5.331-2.248.524-.307.084-.434.012-.458-.289l-.006-.078c-.488-2.019-.482-2,1.537-2.5a20.131,20.131,0,0,0,4.43-1.513c.56-.289,1.41-.524,1.4-1.169-.006-.693-.868-.928-1.471-1.193A27.983,27.983,0,0,0,62.8,47.422a99.2,99.2,0,0,0-14.422-1.874c-3.465-.235-6.931-.331-10.794-.325m.313-2.585v.193c2.6,0,5.2-.078,7.787.018,2.616.1,5.231.362,7.841.579.542.042.705,0,.56-.627a16.534,16.534,0,0,0-32.231-.048c-.139.6-.066.735.567.675,5.147-.512,10.306-.759,15.477-.79" transform="translate(-3.389 -27.358)" fill="#768801"/>
      <path id="Tracé_4610" data-name="Tracé 4610" d="M27.31,30.812a119.917,119.917,0,0,1,15.706.609c.356.036.844-.09.91.542.018.2.338.181.53.247a6.314,6.314,0,0,1,4.484,6.28,6.25,6.25,0,0,1-4.984,5.96.952.952,0,0,0-.862.705,14.077,14.077,0,0,1-3.688,5.78c-1.386,1.38-2.778,2.748-4.14,4.152a6.765,6.765,0,0,1-4.87,2.3c-2.158.036-4.315.078-6.473-.03a6.184,6.184,0,0,1-4.116-1.85c-1.8-1.766-3.568-3.556-5.322-5.364a12.587,12.587,0,0,1-2.935-4.912,1.023,1.023,0,0,0-.886-.789A6.233,6.233,0,0,1,5.68,38.49a6.316,6.316,0,0,1,4.484-6.28c.3-.09.554-.121.633-.536.06-.313.476-.223.735-.241,2.688-.217,5.376-.494,8.07-.6,2.567-.1,5.141-.018,7.708-.018M41.34,37.87c0-1.025-.06-2.055.018-3.08.054-.789-.193-1.025-.988-1.079-4.177-.3-8.359-.494-12.548-.5q-6.871-.018-13.711.524c-.6.042-.874.163-.85.88.066,1.953.012,3.905.024,5.864a11.325,11.325,0,0,0,3.2,8.088C18.167,50.3,19.885,52,21.6,53.7a3.85,3.85,0,0,0,2.845,1.151c1.88-.006,3.755-.018,5.629,0a4.133,4.133,0,0,0,3.1-1.3c1.573-1.585,3.158-3.164,4.737-4.749a11.475,11.475,0,0,0,3.11-5.563,23.972,23.972,0,0,0,.313-5.376M10.76,41.805V35.254c0-.3.054-.585-.44-.374a3.908,3.908,0,0,0-2.127,3.574,3.63,3.63,0,0,0,2.567,3.351m33.1.072A3.73,3.73,0,0,0,46.4,38.539,3.642,3.642,0,0,0,44.5,35c-.38-.235-.669-.4-.657.319.036,2.158.012,4.321.012,6.557" transform="translate(7.254 -10.26)" fill="#768801"/>
      <path id="Tracé_4611" data-name="Tracé 4611" d="M10.381,39.231c-1.326,0-1.326,0-1.326-1.3,0-1.278,0-1.278,1.272-1.278,1.254,0,1.254,0,1.254,1.229v.151c0,1.193,0,1.193-1.2,1.193" transform="translate(24.249 19.392)" fill="#768801"/>
      <path id="Tracé_4612" data-name="Tracé 4612" d="M15.648,40.329c-2.338,0-4.677-.018-7.015.012-.512.006-.663-.139-.639-.639.042-1.133-.036-2.266.06-3.393a3.592,3.592,0,0,1,3.616-3.58c2.64-.121,5.291-.127,7.937-.006,2.308.1,3.64,1.645,3.706,4,.03,1.025-.018,2.055.018,3.086.018.476-.187.536-.585.53-2.369-.012-4.731-.006-7.1-.006m-.024-2.561c1.519,0,3.031.006,4.55-.006.193-.006.458.145.579-.193a1.673,1.673,0,0,0-1.621-2.332c-2.212-.006-4.418,0-6.629,0-1.585,0-1.941.38-1.947,1.947,0,.476.121.609.6.6,1.489-.03,2.983-.012,4.472-.012" transform="translate(18.903 -0.828)" fill="#768801"/>
    </g>
  </g>
</svg>
